<svg width="40" height="40" viewBox="0 0 40 40" fill="none" xmlns="http://www.w3.org/2000/svg">
<g clip-path="url(#clip0_353_2242)">
<path d="M33.7497 20.8303C29.1666 19.1129 24.5775 19.2717 20 21.3014V22.0398C20 22.0108 20 21.7647 20 21.3014C15.4183 19.2697 10.8292 19.1145 6.25032 20.8303C5.5562 21.0904 5.09863 21.7573 5.09863 22.4984V38.8386C5.09863 39.5059 5.76193 39.9742 6.38852 39.7446C10.5308 38.2264 14.6813 38.2396 18.8269 39.7878C19.5842 40.0705 20.4161 40.0705 21.1734 39.7877C25.3155 38.2408 29.466 38.2253 33.6117 39.7446C34.2382 39.9743 34.9015 39.5059 34.9015 38.8386C34.9015 33.5176 34.9015 27.8194 34.9015 22.4984C34.9015 21.7573 34.4438 21.0904 33.7497 20.8303Z" fill="url(#paint0_linear_353_2242)"/>
<path d="M5.09859 38.8387C5.09859 39.506 5.76188 39.9743 6.38847 39.7446C10.5307 38.2265 14.6812 38.2397 18.8269 39.7878C19.5842 40.0707 20.4161 40.0706 21.1733 39.7878C25.3155 38.2409 29.4659 38.2253 33.6117 39.7447C34.2382 39.9744 34.9015 39.506 34.9015 38.8387C34.9015 36.1701 34.9015 33.4067 34.9015 30.6436H5.09851C5.09851 33.4067 5.09851 36.1701 5.09859 38.8387Z" fill="url(#paint1_linear_353_2242)"/>
<path d="M34.9012 22.4983V38.8387C34.9012 39.5061 34.2385 39.9744 33.6118 39.7446C29.4659 38.2253 25.3154 38.241 21.1734 39.7877C20.4157 40.0708 19.5844 40.0708 18.8267 39.7877C15.2887 38.4669 11.7467 38.2638 8.20947 39.1767L6.94751 37.9147V20.5853C11.295 19.1359 15.6503 19.3728 20.0001 21.3014C24.5773 19.2716 29.1663 19.1132 33.7499 20.83C34.444 21.0904 34.9012 21.7571 34.9012 22.4983Z" fill="url(#paint2_linear_353_2242)"/>
<path d="M20.0001 35.3274V38.5077C15.9183 36.6981 11.8291 36.5423 7.74917 38.0376C7.18502 38.2441 6.58862 37.8228 6.58862 37.2226V34.0424C6.58862 34.6425 7.18502 35.0637 7.74917 34.8573C11.8291 33.3622 15.9183 33.5179 20.0001 35.3274Z" fill="url(#paint3_linear_353_2242)"/>
<path d="M33.4116 34.0425V37.2227C33.4116 37.8228 32.8152 38.245 32.251 38.0376C28.1674 36.5416 24.0782 36.6992 20.0001 38.5078V35.3275C24.0782 33.5189 28.1674 33.3613 32.251 34.8574C32.8152 35.0648 33.4116 34.6426 33.4116 34.0425Z" fill="url(#paint4_linear_353_2242)"/>
<path d="M32.251 37.1619C28.1674 35.6658 24.0782 35.8234 20.0001 37.632C15.9183 35.8224 11.8291 35.6667 7.74917 37.1619C7.18502 37.3684 6.58862 36.9471 6.58862 36.347V37.2227C6.58862 37.8227 7.18502 38.244 7.74917 38.0376C11.8291 36.5424 15.9183 36.6982 20.0001 38.5077C24.0782 36.6991 28.1674 36.5415 32.251 38.0376C32.8151 38.2449 33.4115 37.8228 33.4115 37.2227V36.347C33.4115 36.9471 32.8151 37.3693 32.251 37.1619Z" fill="url(#paint5_linear_353_2242)"/>
<path d="M6.58826 21.2883V35.6554C6.58826 36.256 7.18528 36.6775 7.7492 36.4708C11.829 34.9755 15.9177 35.1309 19.9999 36.9409C20 31.3642 20 25.7875 20 20.2108C15.8763 18.3823 11.7461 18.2425 7.62488 19.7868C7.00018 20.0209 6.58826 20.6212 6.58826 21.2883Z" fill="url(#paint6_linear_353_2242)"/>
<path d="M20 20.2108V36.9409C24.0784 35.1324 28.1671 34.9743 32.2508 36.4709C32.8147 36.6776 33.4117 36.256 33.4117 35.6555C33.4117 30.8664 33.4117 26.0774 33.4117 21.2883C33.4117 20.6212 32.9998 20.0209 32.3751 19.7868C28.2501 18.2411 24.1198 18.3841 20 20.2108Z" fill="url(#paint7_linear_353_2242)"/>
<path d="M32.0256 28.2338C31.1675 27.9854 30.3092 27.8102 29.4507 27.7079C28.998 27.654 28.5983 28.0031 28.5983 28.459V33.7767C28.5983 34.1631 28.8892 34.4874 29.2735 34.5286C30.0728 34.6144 30.8719 34.7631 31.6708 34.9756C32.0859 35.086 32.4937 34.7777 32.4937 34.3482V28.8593C32.4937 28.5702 32.3034 28.3143 32.0256 28.2338Z" fill="url(#paint8_linear_353_2242)"/>
<path d="M9.26522 28.6591C11.1408 28.1599 13.0179 28.0096 14.895 28.2081C15.279 28.2487 15.6132 27.9474 15.6132 27.5613V22.0304C15.6132 21.7017 15.3685 21.4218 15.0421 21.3841C12.9986 21.1482 10.9549 21.3256 8.91315 21.9165C8.63503 21.9969 8.44397 22.2528 8.44397 22.5423V28.0312C8.44389 28.4601 8.85079 28.7693 9.26522 28.6591Z" fill="url(#paint9_linear_353_2242)"/>
<path d="M8.36037 32.3838C8.12287 32.3838 7.90186 32.2326 7.82429 31.9945C7.72782 31.6984 7.88954 31.3799 8.1857 31.2834C11.4943 30.2048 14.8499 30.1786 18.1592 31.2059C18.4567 31.2983 18.623 31.6143 18.5306 31.9118C18.4383 32.2093 18.1223 32.3756 17.8248 32.2833C14.743 31.3267 11.6175 31.3511 8.53542 32.3559C8.47723 32.3748 8.41825 32.3838 8.36037 32.3838Z" fill="#7BACDF"/>
<path d="M8.36037 34.7402C8.12287 34.7402 7.90186 34.589 7.82429 34.3509C7.72782 34.0547 7.88954 33.7363 8.1857 33.6398C11.4942 32.561 14.8497 32.535 18.1592 33.5623C18.4567 33.6547 18.623 33.9707 18.5306 34.2682C18.4383 34.5656 18.1223 34.7319 17.8248 34.6396C14.7427 33.6828 11.6174 33.7074 8.53542 34.7122C8.47723 34.7312 8.41825 34.7402 8.36037 34.7402Z" fill="#7BACDF"/>
<path d="M27.7459 31.0195V31.0202C27.7459 31.3329 27.4915 31.5831 27.1787 31.5842C25.6064 31.5897 24.0341 31.8469 22.4726 32.3558C22.4147 32.3746 22.3561 32.3836 22.2981 32.3836C22.0605 32.3836 21.8394 32.2325 21.7619 31.9948C21.6648 31.6985 21.8273 31.3804 22.1228 31.2834C23.8022 30.7362 25.4938 30.4598 27.1849 30.4552C27.4954 30.4544 27.7459 30.7092 27.7459 31.0195Z" fill="#7BACDF"/>
<path d="M27.7459 33.3751C27.7459 33.6877 27.4917 33.9379 27.179 33.9391C25.6074 33.9454 24.034 34.2038 22.4726 34.7126C22.4147 34.7315 22.3561 34.7405 22.2981 34.7405C22.0605 34.7405 21.8394 34.5893 21.7619 34.3509C21.6648 34.0546 21.8273 33.7365 22.1228 33.6395C23.8008 33.093 25.4934 32.816 27.1847 32.8107C27.4952 32.8098 27.7459 33.0646 27.7459 33.3751Z" fill="#7BACDF"/>
<path d="M22.2979 27.6209C22.0604 27.6209 21.8394 27.4696 21.7618 27.2315C21.6653 26.9354 21.827 26.617 22.1233 26.5205C25.4318 25.4419 28.7874 25.4159 32.0967 26.443C32.3942 26.5354 32.5605 26.8514 32.4681 27.1489C32.3758 27.4464 32.0598 27.6125 31.7623 27.5203C28.6805 26.5638 25.5551 26.5882 22.4728 27.5929C22.4148 27.612 22.3558 27.6209 22.2979 27.6209Z" fill="#7BACDF"/>
<path d="M27.7459 28.613V28.6137C27.7459 28.9265 27.4915 29.1767 27.1787 29.1778C25.6064 29.1833 24.0341 29.4405 22.4726 29.9493C22.4147 29.9682 22.3561 29.9772 22.2981 29.9772C22.0605 29.9772 21.8394 29.826 21.7619 29.5884C21.6648 29.2921 21.8273 28.974 22.1228 28.8769C23.8022 28.3298 25.4938 28.0534 27.1849 28.0488C27.4954 28.0478 27.7459 28.3027 27.7459 28.613Z" fill="#7BACDF"/>
<path d="M22.2979 22.8581C22.0604 22.8581 21.8394 22.7069 21.7618 22.4687C21.6653 22.1726 21.827 21.8542 22.1233 21.7576C25.4317 20.679 28.7874 20.6529 32.0967 21.6802C32.3942 21.7725 32.5605 22.0885 32.4681 22.386C32.3758 22.6835 32.0601 22.8496 31.7623 22.7575C28.6805 21.8009 25.555 21.8253 22.4728 22.8301C22.4148 22.8491 22.3558 22.8581 22.2979 22.8581Z" fill="#7BACDF"/>
<path d="M22.2981 25.2145C22.0605 25.2145 21.8395 25.0633 21.7619 24.8251C21.6654 24.529 21.8272 24.2106 22.1234 24.114C24.3915 23.3747 26.6938 23.127 28.9675 23.3782C29.277 23.4124 29.5003 23.6912 29.4661 24.0008C29.4319 24.3103 29.1545 24.5336 28.8436 24.4994C26.7308 24.2659 24.5876 24.497 22.473 25.1865C22.4149 25.2055 22.3559 25.2145 22.2981 25.2145Z" fill="#7BACDF"/>
<path d="M6.58826 21.2883V35.6554C6.58826 36.256 7.18528 36.6775 7.7492 36.4708C11.829 34.9755 15.9177 35.1309 19.9999 36.9409C20 31.3642 20 25.7875 20 20.2108C15.8763 18.3823 11.7461 18.2425 7.62488 19.7868C7.00018 20.0209 6.58826 20.6212 6.58826 21.2883Z" fill="url(#paint10_linear_353_2242)"/>
<path d="M20 20.2108V36.9409C24.0784 35.1324 28.1671 34.9743 32.2508 36.4709C32.8147 36.6776 33.4117 36.256 33.4117 35.6555C33.4117 30.8664 33.4117 26.0774 33.4117 21.2883C33.4117 20.6212 32.9998 20.0209 32.3751 19.7868C28.2501 18.2411 24.1198 18.3841 20 20.2108Z" fill="url(#paint11_linear_353_2242)"/>
<path d="M29.9915 9.99145C29.9915 4.47333 25.5182 7.84324e-05 20.0001 1.03982e-09C14.494 -7.84303e-05 10.0349 4.43678 10.0087 9.9429C9.99454 12.9038 11.2687 15.5672 13.3028 17.4056C14.8542 18.8076 15.7255 20.8108 15.7255 22.9019V22.902H24.2745C24.2745 20.79 25.1832 18.7907 26.7415 17.3653C28.7388 15.5386 29.9915 12.9115 29.9915 9.99145Z" fill="url(#paint12_linear_353_2242)"/>
<path d="M11.7899 15.6863C12.2276 16.3158 12.7355 16.8929 13.3028 17.4056C14.8542 18.8076 15.7255 20.8108 15.7255 22.902H24.2745C24.2745 20.79 25.1832 18.7907 26.7415 17.3653C27.2909 16.8628 27.7836 16.2994 28.2098 15.6863H11.7899Z" fill="url(#paint13_linear_353_2242)"/>
<path d="M20.0001 30.3922C21.6245 30.3922 22.9413 29.0754 22.9413 27.451C22.9413 25.8266 21.6245 24.5098 20.0001 24.5098C18.3758 24.5098 17.059 25.8266 17.059 27.451C17.059 29.0754 18.3758 30.3922 20.0001 30.3922Z" fill="url(#paint14_linear_353_2242)"/>
<path d="M23.5687 27.5294H16.4314C15.6301 27.5294 14.9805 26.8798 14.9805 26.0784C14.9805 25.2771 15.6301 24.6275 16.4314 24.6275H23.5687C24.37 24.6275 25.0197 25.2771 25.0197 26.0784C25.0197 26.8798 24.37 27.5294 23.5687 27.5294Z" fill="url(#paint15_linear_353_2242)"/>
<path d="M23.5687 24.6275H16.4314C15.6301 24.6275 14.9805 23.9778 14.9805 23.1765C14.9805 22.3751 15.6301 21.7255 16.4314 21.7255H23.5687C24.37 21.7255 25.0197 22.3751 25.0197 23.1765C25.0197 23.9778 24.37 24.6275 23.5687 24.6275Z" fill="url(#paint16_linear_353_2242)"/>
<path d="M20 20.6465C23.3604 20.6465 26.0844 17.9224 26.0844 14.5621C26.0844 11.2018 23.3604 8.47772 20 8.47772C16.6397 8.47772 13.9156 11.2018 13.9156 14.5621C13.9156 17.9224 16.6397 20.6465 20 20.6465Z" fill="url(#paint17_linear_353_2242)"/>
<path d="M33.5378 9.19451C33.5378 8.50023 34.1007 7.93741 34.7949 7.93741H37.409C38.1033 7.93741 38.6661 8.50023 38.6661 9.19451C38.6661 9.88878 38.1033 10.4516 37.409 10.4516H34.7949C34.1007 10.4515 33.5378 9.8887 33.5378 9.19451Z" fill="url(#paint18_linear_353_2242)"/>
<path d="M32.6813 5.95513C32.1904 5.46423 32.1904 4.66831 32.6813 4.17733L34.5297 2.32894C35.0206 1.83804 35.8165 1.83804 36.3075 2.32894C36.7984 2.81984 36.7984 3.61576 36.3075 4.10674L34.4591 5.95513C33.9681 6.44604 33.1722 6.44604 32.6813 5.95513Z" fill="url(#paint19_linear_353_2242)"/>
<path d="M32.6813 12.4338C33.1722 11.9429 33.9681 11.9429 34.4591 12.4338L36.3075 14.2822C36.7984 14.7731 36.7984 15.569 36.3075 16.06C35.8166 16.5509 35.0207 16.5509 34.5297 16.06L32.6813 14.2116C32.1904 13.7207 32.1904 12.9247 32.6813 12.4338Z" fill="url(#paint20_linear_353_2242)"/>
<path d="M6.46222 9.19451C6.46222 8.50023 5.8994 7.93741 5.20512 7.93741H2.59108C1.89681 7.93741 1.33398 8.50023 1.33398 9.19451C1.33398 9.88878 1.89681 10.4516 2.59108 10.4516H5.20512C5.8994 10.4515 6.46222 9.8887 6.46222 9.19451Z" fill="url(#paint21_linear_353_2242)"/>
<path d="M7.31871 5.95513C7.80962 5.46423 7.80962 4.66831 7.31871 4.17733L5.47032 2.32894C4.97942 1.83804 4.1835 1.83804 3.69252 2.32894C3.20162 2.81984 3.20162 3.61576 3.69252 4.10674L5.54091 5.95513C6.03189 6.44604 6.82781 6.44604 7.31871 5.95513Z" fill="url(#paint22_linear_353_2242)"/>
<path d="M7.31871 12.4338C6.82781 11.9429 6.03189 11.9429 5.54091 12.4338L3.69252 14.2822C3.20162 14.7731 3.20162 15.569 3.69252 16.06C4.18342 16.5509 4.97934 16.5509 5.47032 16.06L7.31871 14.2116C7.80969 13.7207 7.80962 12.9247 7.31871 12.4338Z" fill="url(#paint23_linear_353_2242)"/>
</g>
<defs>
<linearGradient id="paint0_linear_353_2242" x1="7.97275" y1="23.383" x2="35.4807" y2="39.5082" gradientUnits="userSpaceOnUse">
<stop stop-color="#D9B1EE"/>
<stop offset="1" stop-color="#814AA0"/>
</linearGradient>
<linearGradient id="paint1_linear_353_2242" x1="20" y1="34.8737" x2="20" y2="38.9526" gradientUnits="userSpaceOnUse">
<stop stop-color="#5B3374" stop-opacity="0"/>
<stop offset="1" stop-color="#5B3374"/>
</linearGradient>
<linearGradient id="paint2_linear_353_2242" x1="32.0072" y1="39.4875" x2="21.5078" y2="30.3881" gradientUnits="userSpaceOnUse">
<stop stop-color="#5B3374" stop-opacity="0"/>
<stop offset="1" stop-color="#5B3374"/>
</linearGradient>
<linearGradient id="paint3_linear_353_2242" x1="11.6569" y1="27.8253" x2="13.6387" y2="38.1035" gradientUnits="userSpaceOnUse">
<stop stop-color="#E6EEFF"/>
<stop offset="1" stop-color="#BAC8FA"/>
</linearGradient>
<linearGradient id="paint4_linear_353_2242" x1="24.207" y1="28.9373" x2="27.1108" y2="37.4642" gradientUnits="userSpaceOnUse">
<stop stop-color="#E6EEFF"/>
<stop offset="1" stop-color="#BAC8FA"/>
</linearGradient>
<linearGradient id="paint5_linear_353_2242" x1="19.7977" y1="40.9714" x2="20.3047" y2="30.5089" gradientUnits="userSpaceOnUse">
<stop stop-color="#A7B7F1" stop-opacity="0"/>
<stop offset="1" stop-color="#A7B7F1"/>
</linearGradient>
<linearGradient id="paint6_linear_353_2242" x1="7.05281" y1="24.5101" x2="23.2412" y2="34.0327" gradientUnits="userSpaceOnUse">
<stop stop-color="#E6EEFF"/>
<stop offset="1" stop-color="#BAC8FA"/>
</linearGradient>
<linearGradient id="paint7_linear_353_2242" x1="19.585" y1="24.4798" x2="35.1999" y2="33.6334" gradientUnits="userSpaceOnUse">
<stop stop-color="#E6EEFF"/>
<stop offset="1" stop-color="#BAC8FA"/>
</linearGradient>
<linearGradient id="paint8_linear_353_2242" x1="26.0475" y1="26.8409" x2="32.2393" y2="33.0327" gradientUnits="userSpaceOnUse">
<stop stop-color="#A7B7F1" stop-opacity="0"/>
<stop offset="1" stop-color="#A7B7F1"/>
</linearGradient>
<linearGradient id="paint9_linear_353_2242" x1="7.11346" y1="18.5086" x2="19.9982" y2="35.6047" gradientUnits="userSpaceOnUse">
<stop stop-color="#A7B7F1" stop-opacity="0"/>
<stop offset="1" stop-color="#A7B7F1"/>
</linearGradient>
<linearGradient id="paint10_linear_353_2242" x1="11.026" y1="31.8984" x2="17.0913" y2="23.7416" gradientUnits="userSpaceOnUse">
<stop stop-color="#A7B7F1" stop-opacity="0"/>
<stop offset="1" stop-color="#FFF5C6"/>
</linearGradient>
<linearGradient id="paint11_linear_353_2242" x1="30.0995" y1="32.175" x2="21.7931" y2="23.8686" gradientUnits="userSpaceOnUse">
<stop stop-color="#A7B7F1" stop-opacity="0"/>
<stop offset="1" stop-color="#FFF5C6"/>
</linearGradient>
<linearGradient id="paint12_linear_353_2242" x1="15.6789" y1="7.1978" x2="26.5448" y2="18.0638" gradientUnits="userSpaceOnUse">
<stop stop-color="#FEE45A"/>
<stop offset="1" stop-color="#FEA613"/>
</linearGradient>
<linearGradient id="paint13_linear_353_2242" x1="19.9999" y1="17.5163" x2="19.9999" y2="21.7153" gradientUnits="userSpaceOnUse">
<stop stop-color="#FE7701" stop-opacity="0"/>
<stop offset="0.1854" stop-color="#F87204" stop-opacity="0.185"/>
<stop offset="0.4314" stop-color="#E7630C" stop-opacity="0.431"/>
<stop offset="0.7114" stop-color="#CB4B19" stop-opacity="0.711"/>
<stop offset="1" stop-color="#A72B2B"/>
</linearGradient>
<linearGradient id="paint14_linear_353_2242" x1="20.0001" y1="26.1791" x2="20.0001" y2="28.5705" gradientUnits="userSpaceOnUse">
<stop stop-color="#5A5A5A"/>
<stop offset="1" stop-color="#444444"/>
</linearGradient>
<linearGradient id="paint15_linear_353_2242" x1="20.0001" y1="25.451" x2="20.0001" y2="26.6308" gradientUnits="userSpaceOnUse">
<stop stop-color="#B4D2E2"/>
<stop offset="1" stop-color="#7BACDF"/>
</linearGradient>
<linearGradient id="paint16_linear_353_2242" x1="20.0001" y1="22.549" x2="20.0001" y2="23.7288" gradientUnits="userSpaceOnUse">
<stop stop-color="#B4D2E2"/>
<stop offset="1" stop-color="#7BACDF"/>
</linearGradient>
<linearGradient id="paint17_linear_353_2242" x1="20" y1="17.0196" x2="20" y2="3.48486" gradientUnits="userSpaceOnUse">
<stop stop-color="#FFF5C6" stop-opacity="0"/>
<stop offset="1" stop-color="#FFF5C6"/>
</linearGradient>
<linearGradient id="paint18_linear_353_2242" x1="36.1019" y1="8.06808" x2="36.1019" y2="11.5594" gradientUnits="userSpaceOnUse">
<stop stop-color="#FEE45A"/>
<stop offset="1" stop-color="#FEA613"/>
</linearGradient>
<linearGradient id="paint19_linear_353_2242" x1="33.6847" y1="3.23964" x2="36.1531" y2="5.7081" gradientUnits="userSpaceOnUse">
<stop stop-color="#FEE45A"/>
<stop offset="1" stop-color="#FEA613"/>
</linearGradient>
<linearGradient id="paint20_linear_353_2242" x1="35.3713" y1="13.417" x2="32.9028" y2="15.8855" gradientUnits="userSpaceOnUse">
<stop stop-color="#FEE45A"/>
<stop offset="1" stop-color="#FEA613"/>
</linearGradient>
<linearGradient id="paint21_linear_353_2242" x1="3.89814" y1="8.06808" x2="3.89814" y2="11.5594" gradientUnits="userSpaceOnUse">
<stop stop-color="#FEE45A"/>
<stop offset="1" stop-color="#FEA613"/>
</linearGradient>
<linearGradient id="paint22_linear_353_2242" x1="6.31999" y1="3.23964" x2="3.85153" y2="5.7081" gradientUnits="userSpaceOnUse">
<stop stop-color="#FEE45A"/>
<stop offset="1" stop-color="#FEA613"/>
</linearGradient>
<linearGradient id="paint23_linear_353_2242" x1="4.63337" y1="13.417" x2="7.10182" y2="15.8855" gradientUnits="userSpaceOnUse">
<stop stop-color="#FEE45A"/>
<stop offset="1" stop-color="#FEA613"/>
</linearGradient>
<clipPath id="clip0_353_2242">
<rect width="40" height="40" fill="white"/>
</clipPath>
</defs>
</svg>
