<svg width="40" height="40" viewBox="0 0 40 40" fill="none" xmlns="http://www.w3.org/2000/svg">
<g clip-path="url(#clip0_353_2649)">
<path d="M10.254 13.6914V18.864C10.254 19.5369 10.7995 20.0824 11.4725 20.0824H36.1667C37.2172 20.0824 38.1687 19.6566 38.8574 18.9679C39.5461 18.2792 39.9719 17.3277 39.9719 16.2772C39.9719 14.1762 38.2686 12.4729 36.1667 12.4729H11.4725C10.7995 12.4729 10.254 13.0184 10.254 13.6914Z" fill="url(#paint0_linear_353_2649)"/>
<path d="M11.4725 12.473H21.0666C20.3936 12.473 19.8481 13.0185 19.8481 13.6914V18.864C19.8481 19.537 20.3936 20.0825 21.0666 20.0825H11.4725C10.7995 20.0825 10.254 19.537 10.254 18.864V13.6914C10.254 13.0185 10.7995 12.473 11.4725 12.473Z" fill="url(#paint1_linear_353_2649)"/>
<path d="M11.4725 20.0825H20.8294L20.799 20.0521C20.3412 19.9494 19.9813 19.5895 19.8786 19.1317L13.2198 12.473H11.4725C10.7995 12.473 10.254 13.0185 10.254 13.6914V18.864C10.254 19.537 10.7995 20.0825 11.4725 20.0825Z" fill="url(#paint2_linear_353_2649)"/>
<path d="M10.6898 19.1605H35.9117C37.5039 19.1605 38.7946 17.8699 38.7946 16.2776C38.7946 14.6855 37.5039 13.3947 35.9117 13.3947H10.5278C9.90904 13.3947 9.40747 13.8963 9.40747 14.5151V17.8781C9.40739 18.5864 9.98159 19.1605 10.6898 19.1605Z" fill="url(#paint3_linear_353_2649)"/>
<path d="M38.4603 17.6252C37.9765 18.5382 37.017 19.1606 35.9117 19.1606H10.6898C9.98159 19.1606 9.40747 18.5864 9.40747 17.8782V17.6252H38.4603Z" fill="url(#paint4_linear_353_2649)"/>
<path d="M35.9117 19.1606H10.6898C9.98159 19.1606 9.40747 18.5864 9.40747 17.8782V16.2776H38.7945C38.7945 17.8698 37.5039 19.1606 35.9117 19.1606Z" fill="url(#paint5_linear_353_2649)"/>
<path d="M38.4744 14.9577C38.6785 15.3533 38.7945 15.8018 38.7945 16.2777C38.7945 17.8698 37.5039 19.1606 35.9116 19.1606H10.6898C9.98159 19.1606 9.40747 18.5864 9.40747 17.8782V14.9577H38.4744Z" fill="url(#paint6_linear_353_2649)"/>
<path d="M10.5071 13.3948H19.8861C19.8622 13.49 19.8482 13.589 19.8482 13.6914V18.864C19.8482 18.9664 19.8622 19.0654 19.886 19.1605H10.6692C9.96096 19.1605 9.38684 18.5864 9.38684 17.8781V14.5151C9.38676 13.8964 9.88833 13.3948 10.5071 13.3948Z" fill="url(#paint7_linear_353_2649)"/>
<path d="M38.9491 28.8323V34.143C38.9491 34.7609 38.4592 35.2643 37.8462 35.2857C37.8394 35.2857 37.8326 35.2866 37.8249 35.2866C37.8181 35.2866 37.8113 35.2875 37.8045 35.2875H11.969C10.9708 35.2875 10.1037 34.7279 9.66527 33.9043C9.46935 33.5377 9.35876 33.1196 9.35876 32.6763V30.2979C9.35876 29.8546 9.46935 29.4366 9.66527 29.0708C9.72253 28.9612 9.78943 28.8555 9.86222 28.7566C10.3375 28.1086 11.1038 27.6876 11.969 27.6876H37.8046C38.437 27.6877 38.9491 28.1999 38.9491 28.8323Z" fill="url(#paint8_linear_353_2649)"/>
<path d="M38.9491 29.0709V33.9043H9.66515C9.46923 33.5377 9.35864 33.1196 9.35864 32.6763V30.2979C9.35864 29.8546 9.46923 29.4366 9.66515 29.0708H38.9491V29.0709Z" fill="url(#paint9_linear_353_2649)"/>
<path d="M11.7072 33.9043C11.5113 33.5377 11.4007 33.1196 11.4007 32.6763V30.2979C11.4007 29.8546 11.5113 29.4366 11.7072 29.0708C11.7645 28.9612 11.8314 28.8555 11.9042 28.7566C12.3795 28.1086 13.1457 27.6876 14.011 27.6876H13.138C12.2727 27.6876 11.5065 28.1086 11.0312 28.7566C10.9584 28.8555 10.8915 28.9612 10.8342 29.0708C10.6383 29.4366 10.5277 29.8546 10.5277 30.2979V32.6763C10.5277 33.1196 10.6383 33.5377 10.8342 33.9043C11.2727 34.7279 12.1399 35.2875 13.1379 35.2875H14.0109C13.0128 35.2875 12.1457 34.7279 11.7072 33.9043Z" fill="url(#paint10_linear_353_2649)"/>
<path d="M16.5814 33.9043C16.3855 33.5377 16.2749 33.1196 16.2749 32.6763V30.2979C16.2749 29.8546 16.3855 29.4366 16.5814 29.0708C16.6386 28.9612 16.7055 28.8555 16.7783 28.7566C17.2536 28.1086 18.0199 27.6876 18.8852 27.6876H18.0121C17.1469 27.6876 16.3806 28.1086 15.9053 28.7566C15.8325 28.8555 15.7656 28.9612 15.7084 29.0708C15.5124 29.4366 15.4019 29.8546 15.4019 30.2979V32.6763C15.4019 33.1196 15.5124 33.5377 15.7084 33.9043C16.1468 34.7279 17.014 35.2875 18.0121 35.2875H18.8851C17.887 35.2875 17.0198 34.7279 16.5814 33.9043Z" fill="url(#paint11_linear_353_2649)"/>
<path d="M37.8501 29.9012V35.2118C37.8501 35.2371 37.8482 35.2603 37.8462 35.2856C37.8394 35.2856 37.8326 35.2865 37.8249 35.2865C37.8181 35.2865 37.8113 35.2875 37.8045 35.2875H11.969C10.9708 35.2875 10.1037 34.7278 9.66527 33.9042C9.46935 33.5376 9.35876 33.1195 9.35876 32.6762V30.2978C9.35876 29.8545 9.46935 29.4365 9.66527 29.0707C9.72253 28.9611 9.78943 28.8554 9.86222 28.7565H36.7057C37.0112 28.7565 37.2876 28.8758 37.4923 29.0707C37.7134 29.2785 37.8501 29.5744 37.8501 29.9012Z" fill="url(#paint12_linear_353_2649)"/>
<path d="M39.1327 28.9009V34.0736C39.1327 34.7465 38.5872 35.292 37.9142 35.292H20.689C19.6385 35.292 18.687 34.8662 17.9983 34.1775C17.3096 33.4888 16.8838 32.5373 16.8838 31.4867C16.8838 29.3857 18.5871 27.6824 20.689 27.6824H37.9142C38.5872 27.6825 39.1327 28.228 39.1327 28.9009Z" fill="url(#paint13_linear_353_2649)"/>
<path d="M38.6969 34.3701H20.9441C19.3519 34.3701 18.0612 33.0794 18.0612 31.4872C18.0612 29.8951 19.3518 28.6043 20.9441 28.6043H38.859C39.4777 28.6043 39.9793 29.1059 39.9793 29.7246V33.0877C39.9794 33.7959 39.4052 34.3701 38.6969 34.3701Z" fill="url(#paint14_linear_353_2649)"/>
<path d="M18.3955 32.8347C18.8793 33.7478 19.8388 34.3701 20.9441 34.3701H38.6969C39.4052 34.3701 39.9793 33.796 39.9793 33.0878V32.8347H18.3955Z" fill="url(#paint15_linear_353_2649)"/>
<path d="M20.9441 34.3701H38.697C39.4052 34.3701 39.9793 33.796 39.9793 33.0878V31.4873H18.0613C18.0613 33.0794 19.3519 34.3701 20.9441 34.3701Z" fill="url(#paint16_linear_353_2649)"/>
<path d="M18.3814 30.1673C18.1773 30.5629 18.0613 31.0114 18.0613 31.4872C18.0613 33.0794 19.3519 34.3701 20.9442 34.3701H38.697C39.4053 34.3701 39.9794 33.796 39.9794 33.0878V30.1673H18.3814Z" fill="url(#paint17_linear_353_2649)"/>
<path d="M9.35864 26.5378V21.2271C9.35864 20.595 9.87111 20.0825 10.5033 20.0825H38.8553C39.4874 20.0825 39.9999 20.595 39.9999 21.2271V26.5378C39.9999 27.17 39.4874 27.6824 38.8553 27.6824H10.5033C9.87111 27.6825 9.35864 27.17 9.35864 26.5378Z" fill="url(#paint18_linear_353_2649)"/>
<path d="M9.35864 26.2993V21.4656H40V26.2993H9.35864Z" fill="url(#paint19_linear_353_2649)"/>
<path d="M35.1832 27.6825V20.0825H36.1879V27.6825H35.1832Z" fill="url(#paint20_linear_353_2649)"/>
<path d="M32.7744 27.6825V20.0825H33.7791V27.6825H32.7744Z" fill="url(#paint21_linear_353_2649)"/>
<path d="M15.5796 27.6825V20.0825H16.5844V27.6825H15.5796Z" fill="url(#paint22_linear_353_2649)"/>
<path d="M13.1708 27.6825V20.0825H14.1755V27.6825H13.1708Z" fill="url(#paint23_linear_353_2649)"/>
<path d="M38.9009 22.2965C38.9009 21.6643 38.3885 21.1519 37.7563 21.1519H9.40429C9.39017 21.1519 9.37637 21.1534 9.36233 21.154C9.36076 21.1783 9.35864 21.2024 9.35864 21.2272V26.538C9.35864 27.1701 9.87111 27.6826 10.5033 27.6826H38.8553C38.8694 27.6826 38.8832 27.681 38.8972 27.6805C38.8988 27.6562 38.9009 27.632 38.9009 27.6072V22.2965Z" fill="url(#paint24_linear_353_2649)"/>
<path d="M10.2849 13.422C10.2653 13.5088 10.254 13.5987 10.254 13.6914V18.864C10.254 18.9416 10.2621 19.0173 10.2759 19.091C10.4059 19.1354 10.5447 19.1605 10.6897 19.1605H19.8861C19.8837 19.1508 19.8807 19.1413 19.8785 19.1316L14.1416 13.3947H10.5277C10.4442 13.3948 10.3632 13.4046 10.2849 13.422Z" fill="url(#paint25_linear_353_2649)"/>
<path d="M5.9975 35.4963L0.857263 34.1616C0.245341 34.0027 -0.121874 33.378 0.0370277 32.766L7.1622 5.324C7.32111 4.71208 7.94589 4.34486 8.55781 4.50376L13.698 5.83843C14.31 5.99733 14.6772 6.62212 14.5183 7.23404L7.39311 34.676C7.2342 35.2879 6.60942 35.6551 5.9975 35.4963Z" fill="url(#paint26_linear_353_2649)"/>
<path d="M5.76664 35.4363L1.08813 34.2216L8.78861 4.56369L13.4671 5.77844L5.76664 35.4363Z" fill="url(#paint27_linear_353_2649)"/>
<path d="M13.5954 10.7883L6.23926 8.87829L6.49181 7.90582L13.8479 9.81578L13.5954 10.7883Z" fill="url(#paint28_linear_353_2649)"/>
<path d="M8.06348 32.0942L0.707397 30.1842L0.959868 29.2118L8.31595 31.1217L8.06348 32.0942Z" fill="url(#paint29_linear_353_2649)"/>
<path d="M8.67208 29.7503L1.31592 27.8403L1.56847 26.8679L8.92455 28.7778L8.67208 29.7503Z" fill="url(#paint30_linear_353_2649)"/>
<path d="M9.31653 5.83616C8.70461 5.67725 8.07982 6.04455 7.92092 6.65639L0.795824 34.0986C0.792295 34.1123 0.790334 34.126 0.787354 34.1397C0.810491 34.1473 0.833393 34.1555 0.857314 34.1616L5.99755 35.4963C6.60939 35.6552 7.23426 35.2879 7.39316 34.6761L14.5183 7.23396C14.5219 7.22023 14.5238 7.20659 14.5268 7.19286C14.5037 7.18525 14.4808 7.1771 14.4568 7.1709L9.31653 5.83616Z" fill="url(#paint31_linear_353_2649)"/>
</g>
<defs>
<linearGradient id="paint0_linear_353_2649" x1="26.9299" y1="11.3325" x2="22.1185" y2="21.7571" gradientUnits="userSpaceOnUse">
<stop stop-color="#92F37F"/>
<stop offset="1" stop-color="#4AB272"/>
</linearGradient>
<linearGradient id="paint1_linear_353_2649" x1="12.2235" y1="16.2777" x2="25.1621" y2="16.2777" gradientUnits="userSpaceOnUse">
<stop stop-color="#4AB272" stop-opacity="0"/>
<stop offset="1" stop-color="#009245"/>
</linearGradient>
<linearGradient id="paint2_linear_353_2649" x1="20.9914" y1="24.7286" x2="8.18752" y2="12.5552" gradientUnits="userSpaceOnUse">
<stop stop-color="#4AB272" stop-opacity="0"/>
<stop offset="1" stop-color="#009245"/>
</linearGradient>
<linearGradient id="paint3_linear_353_2649" x1="24.101" y1="14.2626" x2="24.101" y2="19.0692" gradientUnits="userSpaceOnUse">
<stop stop-color="#F9F7FC"/>
<stop offset="1" stop-color="#F0DDFC"/>
</linearGradient>
<linearGradient id="paint4_linear_353_2649" x1="23.9872" y1="19.1386" x2="23.7519" y2="13.0795" gradientUnits="userSpaceOnUse">
<stop stop-color="#F0DDFC" stop-opacity="0"/>
<stop offset="0.2889" stop-color="#C8B7E0" stop-opacity="0.289"/>
<stop offset="0.5915" stop-color="#A595C8" stop-opacity="0.592"/>
<stop offset="0.8395" stop-color="#8F81B8" stop-opacity="0.84"/>
<stop offset="1" stop-color="#8779B3"/>
</linearGradient>
<linearGradient id="paint5_linear_353_2649" x1="24.101" y1="17.6899" x2="24.101" y2="14.3272" gradientUnits="userSpaceOnUse">
<stop stop-color="#F0DDFC" stop-opacity="0"/>
<stop offset="0.2889" stop-color="#C8B7E0" stop-opacity="0.289"/>
<stop offset="0.5915" stop-color="#A595C8" stop-opacity="0.592"/>
<stop offset="0.8395" stop-color="#8F81B8" stop-opacity="0.84"/>
<stop offset="1" stop-color="#8779B3"/>
</linearGradient>
<linearGradient id="paint6_linear_353_2649" x1="24.0708" y1="16.0408" x2="24.0086" y2="13.9242" gradientUnits="userSpaceOnUse">
<stop stop-color="#F0DDFC" stop-opacity="0"/>
<stop offset="0.2889" stop-color="#C8B7E0" stop-opacity="0.289"/>
<stop offset="0.5915" stop-color="#A595C8" stop-opacity="0.592"/>
<stop offset="0.8395" stop-color="#8F81B8" stop-opacity="0.84"/>
<stop offset="1" stop-color="#8779B3"/>
</linearGradient>
<linearGradient id="paint7_linear_353_2649" x1="12.122" y1="16.2777" x2="30.4189" y2="16.2777" gradientUnits="userSpaceOnUse">
<stop stop-color="#F0DDFC" stop-opacity="0"/>
<stop offset="0.2889" stop-color="#C8B7E0" stop-opacity="0.289"/>
<stop offset="0.5915" stop-color="#A595C8" stop-opacity="0.592"/>
<stop offset="0.8395" stop-color="#8F81B8" stop-opacity="0.84"/>
<stop offset="1" stop-color="#8779B3"/>
</linearGradient>
<linearGradient id="paint8_linear_353_2649" x1="24.1539" y1="29.8857" x2="24.1539" y2="35.2206" gradientUnits="userSpaceOnUse">
<stop stop-color="#FFDA45"/>
<stop offset="1" stop-color="#FFA425"/>
</linearGradient>
<linearGradient id="paint9_linear_353_2649" x1="24.1539" y1="30.4192" x2="24.1539" y2="32.7977" gradientUnits="userSpaceOnUse">
<stop stop-color="#FFDA45"/>
<stop offset="1" stop-color="#FFA425"/>
</linearGradient>
<linearGradient id="paint10_linear_353_2649" x1="12.2694" y1="31.6075" x2="12.2694" y2="33.453" gradientUnits="userSpaceOnUse">
<stop stop-color="#FF7044"/>
<stop offset="1" stop-color="#F92814"/>
</linearGradient>
<linearGradient id="paint11_linear_353_2649" x1="17.1435" y1="31.6075" x2="17.1435" y2="33.453" gradientUnits="userSpaceOnUse">
<stop stop-color="#FF7044"/>
<stop offset="1" stop-color="#F92814"/>
</linearGradient>
<linearGradient id="paint12_linear_353_2649" x1="23.6044" y1="32.3591" x2="23.6044" y2="27.6062" gradientUnits="userSpaceOnUse">
<stop stop-color="#FFDA45" stop-opacity="0"/>
<stop offset="1" stop-color="#FCEE21"/>
</linearGradient>
<linearGradient id="paint13_linear_353_2649" x1="26.6113" y1="27.4519" x2="30.5729" y2="36.0354" gradientUnits="userSpaceOnUse">
<stop stop-color="#FFDA45"/>
<stop offset="1" stop-color="#FFA425"/>
</linearGradient>
<linearGradient id="paint14_linear_353_2649" x1="29.0203" y1="29.4721" x2="29.0203" y2="34.2787" gradientUnits="userSpaceOnUse">
<stop stop-color="#F9F7FC"/>
<stop offset="1" stop-color="#F0DDFC"/>
</linearGradient>
<linearGradient id="paint15_linear_353_2649" x1="29.1375" y1="34.2583" x2="29.3463" y2="28.8839" gradientUnits="userSpaceOnUse">
<stop stop-color="#F0DDFC" stop-opacity="0"/>
<stop offset="0.2889" stop-color="#C8B7E0" stop-opacity="0.289"/>
<stop offset="0.5915" stop-color="#A595C8" stop-opacity="0.592"/>
<stop offset="0.8395" stop-color="#8F81B8" stop-opacity="0.84"/>
<stop offset="1" stop-color="#8779B3"/>
</linearGradient>
<linearGradient id="paint16_linear_353_2649" x1="29.0203" y1="32.8994" x2="29.0203" y2="29.5368" gradientUnits="userSpaceOnUse">
<stop stop-color="#F0DDFC" stop-opacity="0"/>
<stop offset="0.2889" stop-color="#C8B7E0" stop-opacity="0.289"/>
<stop offset="0.5915" stop-color="#A595C8" stop-opacity="0.592"/>
<stop offset="0.8395" stop-color="#8F81B8" stop-opacity="0.84"/>
<stop offset="1" stop-color="#8779B3"/>
</linearGradient>
<linearGradient id="paint17_linear_353_2649" x1="29.0493" y1="31.2934" x2="29.1087" y2="29.27" gradientUnits="userSpaceOnUse">
<stop stop-color="#F0DDFC" stop-opacity="0"/>
<stop offset="0.2889" stop-color="#C8B7E0" stop-opacity="0.289"/>
<stop offset="0.5915" stop-color="#A595C8" stop-opacity="0.592"/>
<stop offset="0.8395" stop-color="#8F81B8" stop-opacity="0.84"/>
<stop offset="1" stop-color="#8779B3"/>
</linearGradient>
<linearGradient id="paint18_linear_353_2649" x1="24.6793" y1="20.0825" x2="24.6793" y2="29.491" gradientUnits="userSpaceOnUse">
<stop stop-color="#4A98F7"/>
<stop offset="1" stop-color="#0469BC"/>
</linearGradient>
<linearGradient id="paint19_linear_353_2649" x1="24.6793" y1="21.4656" x2="24.6793" y2="25.0213" gradientUnits="userSpaceOnUse">
<stop stop-color="#4A98F7"/>
<stop offset="1" stop-color="#0469BC"/>
</linearGradient>
<linearGradient id="paint20_linear_353_2649" x1="35.6856" y1="20.0825" x2="35.6856" y2="25.6731" gradientUnits="userSpaceOnUse">
<stop stop-color="#FFDA45"/>
<stop offset="1" stop-color="#FFA425"/>
</linearGradient>
<linearGradient id="paint21_linear_353_2649" x1="33.2768" y1="20.0825" x2="33.2768" y2="25.6731" gradientUnits="userSpaceOnUse">
<stop stop-color="#FFDA45"/>
<stop offset="1" stop-color="#FFA425"/>
</linearGradient>
<linearGradient id="paint22_linear_353_2649" x1="16.082" y1="20.0825" x2="16.082" y2="25.6731" gradientUnits="userSpaceOnUse">
<stop stop-color="#FFDA45"/>
<stop offset="1" stop-color="#FFA425"/>
</linearGradient>
<linearGradient id="paint23_linear_353_2649" x1="13.6732" y1="20.0825" x2="13.6732" y2="25.6731" gradientUnits="userSpaceOnUse">
<stop stop-color="#FFDA45"/>
<stop offset="1" stop-color="#FFA425"/>
</linearGradient>
<linearGradient id="paint24_linear_353_2649" x1="25.8874" y1="20.6475" x2="29.931" y2="11.9751" gradientUnits="userSpaceOnUse">
<stop stop-color="#18CFFC" stop-opacity="0"/>
<stop offset="1" stop-color="#65E1DC"/>
</linearGradient>
<linearGradient id="paint25_linear_353_2649" x1="16.8817" y1="19.406" x2="7.4243" y2="13.0042" gradientUnits="userSpaceOnUse">
<stop stop-color="#F0DDFC" stop-opacity="0"/>
<stop offset="0.2889" stop-color="#C8B7E0" stop-opacity="0.289"/>
<stop offset="0.5915" stop-color="#A595C8" stop-opacity="0.592"/>
<stop offset="0.8395" stop-color="#8F81B8" stop-opacity="0.84"/>
<stop offset="1" stop-color="#8779B3"/>
</linearGradient>
<linearGradient id="paint26_linear_353_2649" x1="3.60756" y1="19.0461" x2="12.715" y2="21.4077" gradientUnits="userSpaceOnUse">
<stop stop-color="#FF7044"/>
<stop offset="1" stop-color="#F92814"/>
</linearGradient>
<linearGradient id="paint27_linear_353_2649" x1="4.94648" y1="19.3933" x2="8.38831" y2="20.2858" gradientUnits="userSpaceOnUse">
<stop stop-color="#FF7044"/>
<stop offset="1" stop-color="#F92814"/>
</linearGradient>
<linearGradient id="paint28_linear_353_2649" x1="6.37009" y1="8.39208" x2="11.7818" y2="9.79531" gradientUnits="userSpaceOnUse">
<stop stop-color="#F9F7FC"/>
<stop offset="1" stop-color="#F0DDFC"/>
</linearGradient>
<linearGradient id="paint29_linear_353_2649" x1="0.845018" y1="29.7001" x2="6.25671" y2="31.1034" gradientUnits="userSpaceOnUse">
<stop stop-color="#F9F7FC"/>
<stop offset="1" stop-color="#F0DDFC"/>
</linearGradient>
<linearGradient id="paint30_linear_353_2649" x1="1.45282" y1="27.356" x2="6.86451" y2="28.7592" gradientUnits="userSpaceOnUse">
<stop stop-color="#F9F7FC"/>
<stop offset="1" stop-color="#F0DDFC"/>
</linearGradient>
<linearGradient id="paint31_linear_353_2649" x1="6.29992" y1="19.9068" x2="0.463049" y2="16.6619" gradientUnits="userSpaceOnUse">
<stop stop-color="#FF7044" stop-opacity="0"/>
<stop offset="1" stop-color="#FFA425"/>
</linearGradient>
<clipPath id="clip0_353_2649">
<path d="M0 0H40V40H0V0Z" fill="white"/>
</clipPath>
</defs>
</svg>
