<svg width="68" height="68" viewBox="0 0 68 68" fill="none" xmlns="http://www.w3.org/2000/svg">
<g filter="url(#filter0_d_420_9928)">
<rect x="18" y="18" width="24" height="24" fill="white"/>
<path d="M30 6C16.7354 6 6 16.7341 6 30C6 43.2647 16.7339 54 30 54C43.2647 54 54 43.2659 54 30C54 16.7353 43.2659 6 30 6ZM38.6473 32.6642L27.3698 39.1805C26.4184 39.7302 25.2453 39.7312 24.2923 39.1813C23.34 38.6317 22.7534 37.6158 22.7534 36.5164V23.4837C22.7534 22.3842 23.3401 21.3683 24.2923 20.8188C24.7682 20.5441 25.2993 20.4067 25.8304 20.4067C26.3619 20.4067 26.8936 20.5444 27.3698 20.8194L38.6474 27.3357C39.5989 27.8855 40.1849 28.901 40.1849 29.9999C40.1849 31.0989 39.5988 32.1143 38.6473 32.6642Z" fill="#2CA8F7"/>
<path d="M30 52C17.8497 52 8 42.1503 8 30H4C4 44.3594 15.6406 56 30 56V52ZM52 30C52 42.1503 42.1503 52 30 52V56C44.3594 56 56 44.3594 56 30H52ZM30 8C42.1503 8 52 17.8497 52 30H56C56 15.6406 44.3594 4 30 4V8ZM30 4C15.6406 4 4 15.6406 4 30H8C8 17.8497 17.8497 8 30 8V4Z" fill="white"/>
</g>
<defs>
<filter id="filter0_d_420_9928" x="0" y="0" width="68" height="68" filterUnits="userSpaceOnUse" color-interpolation-filters="sRGB">
<feFlood flood-opacity="0" result="BackgroundImageFix"/>
<feColorMatrix in="SourceAlpha" type="matrix" values="0 0 0 0 0 0 0 0 0 0 0 0 0 0 0 0 0 0 127 0" result="hardAlpha"/>
<feOffset dx="4" dy="4"/>
<feGaussianBlur stdDeviation="4"/>
<feComposite in2="hardAlpha" operator="out"/>
<feColorMatrix type="matrix" values="0 0 0 0 0.0929688 0 0 0 0 0.376125 0 0 0 0 0.6375 0 0 0 0.24 0"/>
<feBlend mode="normal" in2="BackgroundImageFix" result="effect1_dropShadow_420_9928"/>
<feBlend mode="normal" in="SourceGraphic" in2="effect1_dropShadow_420_9928" result="shape"/>
</filter>
</defs>
</svg>
