<svg width="20" height="20" viewBox="0 0 20 20" fill="none" xmlns="http://www.w3.org/2000/svg">
<path d="M19.2781 8.25413C18.8118 7.78788 18.1919 7.53112 17.5309 7.53112L8.4293 7.53101L9.54121 6.41913C10.0083 5.95269 10.2655 5.3323 10.2655 4.67218C10.2655 3.31089 9.15793 2.20343 7.79602 2.20343C7.13688 2.20343 6.51707 2.46019 6.05066 2.92655L0.726602 8.25077C0.38125 8.59476 0.147383 9.02777 0.0502344 9.50296C0.016875 9.66566 0 9.83288 0 10C0 10.6613 0.258086 11.2825 0.725899 11.7485L6.04965 17.0722C6.51602 17.5393 7.13645 17.7966 7.79664 17.7966C9.15793 17.7966 10.2654 16.689 10.2655 15.3278C10.2656 14.6684 10.0088 14.0484 9.54238 13.5818L8.42938 12.4688H17.5323C18.1919 12.4688 18.812 12.212 19.2781 11.7457C20.2406 10.783 20.2406 9.21675 19.2781 8.25413Z" fill="#2CA8F7"/>
</svg>
