<svg width="28" height="28" viewBox="0 0 28 28" fill="none" xmlns="http://www.w3.org/2000/svg">
<path d="M23.6575 5.60716C21.4303 3.37998 18.469 2.15335 15.3194 2.15335C10.8543 2.15335 6.77053 4.68992 4.77758 8.6569H1.94574C1.50578 8.6569 1.11292 8.9195 0.944376 9.32597C0.775987 9.7326 0.868273 10.1963 1.17942 10.5074L4.79729 14.1253C4.98218 14.3102 5.22811 14.4121 5.48975 14.4121C5.75138 14.4121 5.99716 14.3103 6.18189 14.1256L9.80008 10.5074C10.1111 10.1963 10.2034 9.7326 10.035 9.32597C9.86673 8.9195 9.47356 8.6569 9.0336 8.6569H6.53277C8.37286 5.60604 11.702 3.69144 15.3194 3.69144C20.9735 3.69144 25.5733 8.29129 25.5733 13.9454C25.5733 19.5993 20.9735 24.1991 15.3194 24.1991C12.5805 24.1991 10.0055 23.1327 8.06877 21.1962C7.76852 20.8958 7.28146 20.8958 6.98121 21.1962C6.68081 21.4963 6.68081 21.9833 6.98121 22.2836C9.20824 24.5108 12.1695 25.7372 15.3194 25.7372C18.4693 25.7372 21.4303 24.5108 23.6576 22.2836C25.885 20.0564 27.1114 17.0951 27.1114 13.9454C27.1114 10.7956 25.885 7.83435 23.6575 5.60716Z" fill="white"/>
<path d="M13.6903 17.419C13.517 17.419 13.3747 17.3731 13.2633 17.2812C13.1519 17.184 13.0962 17.0652 13.0962 16.9248V12.8414L13.2261 13.0197L12.5485 13.4572C12.4619 13.5166 12.3536 13.5463 12.2237 13.5463C12.0752 13.5463 11.9452 13.4977 11.8338 13.4005C11.7224 13.3032 11.6667 13.1871 11.6667 13.0521C11.6667 12.8792 11.7627 12.7388 11.9545 12.6308L13.2911 11.853C13.353 11.8152 13.4211 11.7882 13.4953 11.772C13.5758 11.7558 13.65 11.7477 13.7181 11.7477C13.8976 11.7477 14.0399 11.7963 14.1451 11.8935C14.2503 11.9853 14.3029 12.1015 14.3029 12.2419V16.9248C14.3029 17.0652 14.2441 17.184 14.1265 17.2812C14.0151 17.3731 13.8697 17.419 13.6903 17.419Z" fill="white"/>
<path d="M17.9384 17.5C17.4062 17.5 16.9545 17.3785 16.5832 17.1354C16.2181 16.8869 15.9397 16.544 15.7478 16.1065C15.556 15.6636 15.4601 15.1559 15.4601 14.5833C15.4601 14.0054 15.556 13.4977 15.7478 13.0602C15.9397 12.6227 16.2181 12.2824 16.5832 12.0393C16.9545 11.7909 17.4062 11.6667 17.9384 11.6667C18.4706 11.6667 18.9192 11.7909 19.2843 12.0393C19.6556 12.2824 19.9372 12.6227 20.129 13.0602C20.3208 13.4977 20.4167 14.0054 20.4167 14.5833C20.4167 15.1559 20.3208 15.6636 20.129 16.1065C19.9372 16.544 19.6556 16.8869 19.2843 17.1354C18.9192 17.3785 18.4706 17.5 17.9384 17.5ZM17.9384 16.5278C18.1983 16.5278 18.4211 16.4576 18.6067 16.3171C18.7986 16.1713 18.9471 15.9552 19.0523 15.669C19.1575 15.3773 19.2101 15.0154 19.2101 14.5833C19.2101 14.1458 19.1575 13.7839 19.0523 13.4977C18.9471 13.2114 18.7986 12.9981 18.6067 12.8576C18.4211 12.7118 18.1983 12.6389 17.9384 12.6389C17.6847 12.6389 17.4619 12.7118 17.2701 12.8576C17.0783 12.9981 16.9298 13.2114 16.8246 13.4977C16.7194 13.7839 16.6668 14.1458 16.6668 14.5833C16.6668 15.0154 16.7194 15.3773 16.8246 15.669C16.9298 15.9552 17.0783 16.1713 17.2701 16.3171C17.4619 16.4576 17.6847 16.5278 17.9384 16.5278Z" fill="white"/>
</svg>
