<svg width="16" height="16" viewBox="0 0 16 16" fill="none" xmlns="http://www.w3.org/2000/svg">
<path d="M15.4225 6.60332C15.0494 6.23032 14.5535 6.02491 14.0247 6.02491L6.74344 6.02482L7.63297 5.13532C8.00663 4.76216 8.21241 4.26585 8.21241 3.73776C8.21241 2.64873 7.32634 1.76276 6.23681 1.76276C5.7095 1.76276 5.21366 1.96816 4.84053 2.34126L0.581281 6.60063C0.305 6.87582 0.117906 7.22223 0.0401875 7.60238C0.0135 7.73254 0 7.86632 0 8.00004C0 8.52907 0.206469 9.02604 0.580719 9.39882L4.83972 13.6578C5.21281 14.0315 5.70916 14.2373 6.23731 14.2373C7.32634 14.2373 8.21234 13.3512 8.21241 12.2622C8.21247 11.7348 8.00706 11.2387 7.63391 10.8655L6.7435 9.97507H14.0258C14.5535 9.97507 15.0496 9.76963 15.4225 9.39654C16.1925 8.62641 16.1925 7.37341 15.4225 6.60332Z" fill="white"/>
</svg>
