<svg width="40" height="40" viewBox="0 0 40 40" fill="none" xmlns="http://www.w3.org/2000/svg">
<g clip-path="url(#clip0_353_647)">
<path d="M29.9133 14.12C29.9133 12.5289 28.8851 11.1202 27.3697 10.6351L14.9198 6.62878C14.5592 6.51341 14.183 6.45467 13.8045 6.45467C11.7837 6.45467 10.1455 8.09286 10.1455 10.1136V22.1653C8.23695 21.8569 5.97107 22.358 3.95554 23.7052C0.410752 26.0745 -1.0156 30.1603 0.769498 32.831C2.55467 35.5017 6.87538 35.746 10.4201 33.3765C12.9829 31.6635 14.4375 29.0535 14.3726 26.7295H14.3756V14.1827C14.3756 13.5579 14.9839 13.1139 15.579 13.3043L25.042 16.3547C25.4239 16.477 25.6831 16.8321 25.6831 17.2331V27.1598C23.7745 26.8514 21.5086 27.3525 19.4931 28.6997C15.9483 31.0691 14.522 35.1549 16.3071 37.8256C18.0922 40.4963 22.413 40.7406 25.9577 38.3711C28.5206 36.6581 29.9751 34.0481 29.9101 31.7241H29.9132V14.12H29.9133Z" fill="url(#paint0_linear_353_647)"/>
<path d="M15.5789 13.3043C14.9844 13.1137 14.3757 13.5577 14.3757 14.1827V10.9553C14.3757 10.3302 14.9844 9.88628 15.5789 10.0769L25.0424 13.1271C25.4244 13.2494 25.6832 13.6047 25.6832 14.0055V17.2329C25.6832 16.8322 25.4244 16.4769 25.0424 16.3545L15.5789 13.3043Z" fill="url(#paint1_linear_353_647)"/>
<path d="M0.769505 32.831C2.55468 35.5017 6.87539 35.746 10.4201 33.3765C12.9829 31.6635 14.4375 29.0535 14.3726 26.7295H14.3756V26.5098H1.171C-0.181397 28.6252 -0.424534 31.0446 0.769505 32.831Z" fill="url(#paint2_linear_353_647)"/>
<path d="M29.9102 31.7279H16.5705C15.341 33.7887 15.1549 36.1018 16.3071 37.8256C18.0923 40.4963 22.413 40.7405 25.9577 38.3711C28.5192 36.6591 29.9734 34.051 29.9102 31.7279Z" fill="url(#paint3_linear_353_647)"/>
<path d="M14.3756 26.3699L9.03979 31.7057L10.5922 33.2581C13.0476 31.5448 14.436 29.0008 14.3726 26.7296H14.3756V26.3699Z" fill="url(#paint4_linear_353_647)"/>
<path d="M8.82461 29.7712L12.1505 24.5169C12.3637 24.1799 12.2414 23.7326 11.8863 23.5511L10.6074 22.8978C9.99935 22.5872 9.98084 21.7251 10.575 21.3888L17.4613 17.4902C18.8721 16.6915 20.4128 18.31 19.5459 19.6798L16.22 24.9342C16.0067 25.2711 16.1291 25.7186 16.4842 25.9L17.763 26.5533C18.371 26.8638 18.3895 27.726 17.7954 28.0624L10.9091 31.9609C9.49833 32.7595 7.95755 31.141 8.82461 29.7712Z" fill="url(#paint5_linear_353_647)"/>
<path d="M29.9133 17.5873H25.6831V27.1598C23.7746 26.8514 21.5087 27.3525 19.4931 28.6997C18.7557 29.1926 18.1103 29.7599 17.5662 30.3733H29.9134V17.5873H29.9133Z" fill="url(#paint6_linear_353_647)"/>
<path d="M40 2.69827C40 4.6418 38.106 6.02126 36.2561 5.42502L34.8941 4.98596C34.4608 4.84722 34.0184 5.17035 34.0184 5.62533V14.7575H34.0161C34.0635 16.4489 33.0045 18.3489 31.1395 19.5956C28.5592 21.3202 25.4143 21.1421 24.115 19.1983C22.8157 17.2544 23.8541 14.2808 26.4339 12.5562C27.901 11.5755 29.5503 11.2107 30.9392 11.4351V2.66369C30.9392 1.92839 31.2372 1.2622 31.7196 0.780392C32.2013 0.297961 32.8676 0 33.6028 0C33.878 0 34.152 0.0428235 34.4146 0.126745L39.2633 1.68729C39.7023 1.82863 40 2.2371 40 2.69827Z" fill="url(#paint7_linear_353_647)"/>
<path d="M34.8941 4.98597L36.2562 5.42502C38.106 6.02126 40 4.64181 40 2.69828C40 2.2371 39.7024 1.82863 39.2634 1.6873L34.4146 0.12675C34.2849 0.085338 34.1524 0.0540439 34.0184 0.0328674V5.62534C34.0184 5.17036 34.4609 4.84722 34.8941 4.98597Z" fill="url(#paint8_linear_353_647)"/>
<path d="M7.52445 10.2245L6.29598 7.19161C6.21723 6.9971 6.32257 6.77702 6.52351 6.7164L7.24696 6.49828C7.59088 6.39459 7.68147 5.94996 7.40547 5.72L4.20625 3.05475C3.5508 2.50871 2.60108 3.20196 2.92131 3.99263L4.14978 7.02542C4.22853 7.21992 4.12319 7.44008 3.92225 7.50063L3.1988 7.71875C2.85488 7.82244 2.76429 8.26706 3.04029 8.49702L6.23951 11.1623C6.89496 11.7083 7.84468 11.0151 7.52445 10.2245Z" fill="url(#paint9_linear_353_647)"/>
</g>
<defs>
<linearGradient id="paint0_linear_353_647" x1="7.10095" y1="14.5376" x2="26.5906" y2="34.0272" gradientUnits="userSpaceOnUse">
<stop stop-color="#FEE45A"/>
<stop offset="1" stop-color="#FEA613"/>
</linearGradient>
<linearGradient id="paint1_linear_353_647" x1="19.6045" y1="15.4107" x2="21.0947" y2="10.548" gradientUnits="userSpaceOnUse">
<stop stop-color="#FEE45A"/>
<stop offset="1" stop-color="#FEA613"/>
</linearGradient>
<linearGradient id="paint2_linear_353_647" x1="7.18794" y1="29.1252" x2="7.18794" y2="35.594" gradientUnits="userSpaceOnUse">
<stop stop-color="#FEA613" stop-opacity="0"/>
<stop offset="1" stop-color="#E94444"/>
</linearGradient>
<linearGradient id="paint3_linear_353_647" x1="22.725" y1="34.2745" x2="22.725" y2="40.573" gradientUnits="userSpaceOnUse">
<stop stop-color="#FEA613" stop-opacity="0"/>
<stop offset="1" stop-color="#E94444"/>
</linearGradient>
<linearGradient id="paint4_linear_353_647" x1="14.9951" y1="32.3252" x2="11.4775" y2="28.8076" gradientUnits="userSpaceOnUse">
<stop stop-color="#FEA613" stop-opacity="0"/>
<stop offset="1" stop-color="#E94444"/>
</linearGradient>
<linearGradient id="paint5_linear_353_647" x1="10.1304" y1="22.6489" x2="17.0135" y2="26.1642" gradientUnits="userSpaceOnUse">
<stop stop-color="#D9B1EE"/>
<stop offset="1" stop-color="#814AA0"/>
</linearGradient>
<linearGradient id="paint6_linear_353_647" x1="23.7397" y1="25.3595" x2="23.7397" y2="19.5893" gradientUnits="userSpaceOnUse">
<stop stop-color="#FEA613" stop-opacity="0"/>
<stop offset="1" stop-color="#E94444"/>
</linearGradient>
<linearGradient id="paint7_linear_353_647" x1="29.405" y1="8.11984" x2="34.7132" y2="13.4281" gradientUnits="userSpaceOnUse">
<stop stop-color="#FD3581"/>
<stop offset="1" stop-color="#972437"/>
</linearGradient>
<linearGradient id="paint8_linear_353_647" x1="37.0093" y1="2.87585" x2="37.0093" y2="7.01185" gradientUnits="userSpaceOnUse">
<stop stop-color="#972437" stop-opacity="0"/>
<stop offset="1" stop-color="#42210B"/>
</linearGradient>
<linearGradient id="paint9_linear_353_647" x1="7.24908" y1="5.85819" x2="2.42463" y2="8.8757" gradientUnits="userSpaceOnUse">
<stop stop-color="#D9B1EE"/>
<stop offset="1" stop-color="#814AA0"/>
</linearGradient>
<clipPath id="clip0_353_647">
<rect width="40" height="40" fill="white"/>
</clipPath>
</defs>
</svg>
