<svg width="48" height="14" viewBox="0 0 48 14" fill="none" xmlns="http://www.w3.org/2000/svg">
<rect width="48" height="14" rx="7" fill="url(#paint0_linear_182_3493)"/>
<circle cx="6" cy="7" r="2" fill="white"/>
<path d="M12.472 10C12.344 10 12.24 9.96267 12.16 9.888C12.0853 9.808 12.048 9.70933 12.048 9.592V4.8H12.904V9.592C12.904 9.70933 12.8613 9.808 12.776 9.888C12.696 9.96267 12.5947 10 12.472 10ZM10.656 5.168C10.544 5.168 10.448 5.13333 10.368 5.064C10.288 4.98933 10.248 4.89333 10.248 4.776C10.248 4.664 10.288 4.57333 10.368 4.504C10.448 4.43467 10.544 4.4 10.656 4.4H14.296C14.408 4.4 14.5013 4.43733 14.576 4.512C14.656 4.58133 14.696 4.672 14.696 4.784C14.696 4.90133 14.656 4.99467 14.576 5.064C14.5013 5.13333 14.408 5.168 14.296 5.168H10.656ZM15.4366 10C15.3192 10 15.2232 9.96267 15.1486 9.888C15.0739 9.808 15.0366 9.70933 15.0366 9.592V6.2C15.0366 6.08267 15.0739 5.98667 15.1486 5.912C15.2232 5.832 15.3192 5.792 15.4366 5.792C15.5486 5.792 15.6419 5.832 15.7166 5.912C15.7966 5.98667 15.8366 6.08267 15.8366 6.2V7.096L15.7566 6.752C15.7992 6.60267 15.8632 6.464 15.9486 6.336C16.0392 6.208 16.1459 6.096 16.2686 6C16.3912 5.904 16.5272 5.82933 16.6766 5.776C16.8312 5.72267 16.9912 5.696 17.1566 5.696C17.2952 5.696 17.4152 5.73333 17.5166 5.808C17.6179 5.88267 17.6686 5.976 17.6686 6.088C17.6686 6.232 17.6312 6.33867 17.5566 6.408C17.4819 6.472 17.3992 6.504 17.3086 6.504C17.2286 6.504 17.1512 6.488 17.0766 6.456C17.0019 6.41867 16.9139 6.4 16.8126 6.4C16.7006 6.4 16.5859 6.42933 16.4686 6.488C16.3512 6.54667 16.2446 6.63467 16.1486 6.752C16.0526 6.864 15.9752 6.99733 15.9166 7.152C15.8632 7.30667 15.8366 7.48 15.8366 7.672V9.592C15.8366 9.70933 15.7966 9.808 15.7166 9.888C15.6419 9.96267 15.5486 10 15.4366 10ZM21.5163 5.792C21.6283 5.792 21.7216 5.832 21.7963 5.912C21.8763 5.98667 21.9163 6.08267 21.9163 6.2V8.304C21.9163 8.85867 21.7616 9.29333 21.4523 9.608C21.143 9.91733 20.7056 10.072 20.1403 10.072C19.5803 10.072 19.1456 9.91733 18.8363 9.608C18.5323 9.29333 18.3803 8.85867 18.3803 8.304V6.2C18.3803 6.08267 18.4176 5.98667 18.4923 5.912C18.567 5.832 18.663 5.792 18.7803 5.792C18.8923 5.792 18.9856 5.832 19.0603 5.912C19.1403 5.98667 19.1803 6.08267 19.1803 6.2V8.304C19.1803 8.65067 19.2603 8.90933 19.4203 9.08C19.5856 9.25067 19.8256 9.336 20.1403 9.336C20.4603 9.336 20.703 9.25067 20.8683 9.08C21.0336 8.90933 21.1163 8.65067 21.1163 8.304V6.2C21.1163 6.08267 21.1536 5.98667 21.2283 5.912C21.303 5.832 21.399 5.792 21.5163 5.792ZM21.4363 6.472V5.8C21.6603 5.8 21.8336 5.75733 21.9563 5.672C22.079 5.58667 22.1403 5.45067 22.1403 5.264C22.1403 5.17333 22.1696 5.088 22.2283 5.008C22.287 4.928 22.3723 4.888 22.4843 4.888C22.6123 4.888 22.6976 4.93067 22.7403 5.016C22.7883 5.10133 22.8123 5.184 22.8123 5.264C22.8123 5.488 22.7616 5.69333 22.6603 5.88C22.5643 6.06133 22.415 6.20533 22.2123 6.312C22.015 6.41867 21.7563 6.472 21.4363 6.472ZM20.2123 11.248C20.0576 11.248 19.9456 11.2187 19.8763 11.16C19.807 11.1067 19.7723 11.0133 19.7723 10.88V10.752C19.7723 10.6187 19.8096 10.5253 19.8843 10.472C19.959 10.4187 20.0683 10.392 20.2123 10.392C20.3776 10.392 20.495 10.4187 20.5643 10.472C20.6336 10.5253 20.6683 10.6187 20.6683 10.752V10.88C20.6683 11.0187 20.631 11.1147 20.5563 11.168C20.487 11.2213 20.3723 11.248 20.2123 11.248ZM24.8928 5.696C25.1808 5.696 25.4368 5.728 25.6608 5.792C25.8848 5.85067 26.0581 5.936 26.1808 6.048C26.3088 6.15467 26.3728 6.28 26.3728 6.424C26.3728 6.51467 26.3461 6.6 26.2928 6.68C26.2394 6.75467 26.1594 6.792 26.0528 6.792C25.9781 6.792 25.9141 6.77867 25.8608 6.752C25.8128 6.72533 25.7674 6.69333 25.7248 6.656C25.6821 6.61867 25.6288 6.58133 25.5648 6.544C25.5061 6.512 25.4181 6.48533 25.3008 6.464C25.1888 6.44267 25.0874 6.432 24.9968 6.432C24.7141 6.432 24.4688 6.496 24.2608 6.624C24.0581 6.752 23.8981 6.92533 23.7808 7.144C23.6688 7.36267 23.6128 7.61067 23.6128 7.888C23.6128 8.16533 23.6688 8.41333 23.7808 8.632C23.8981 8.85067 24.0554 9.024 24.2528 9.152C24.4554 9.28 24.6901 9.344 24.9568 9.344C25.1168 9.344 25.2474 9.33333 25.3488 9.312C25.4501 9.28533 25.5381 9.25333 25.6128 9.216C25.6928 9.168 25.7594 9.12 25.8128 9.072C25.8714 9.01867 25.9514 8.992 26.0528 8.992C26.1701 8.992 26.2581 9.02933 26.3168 9.104C26.3808 9.17333 26.4128 9.26133 26.4128 9.368C26.4128 9.48533 26.3408 9.6 26.1968 9.712C26.0581 9.81867 25.8714 9.90667 25.6368 9.976C25.4021 10.0453 25.1434 10.08 24.8608 10.08C24.4448 10.08 24.0821 9.984 23.7728 9.792C23.4688 9.6 23.2314 9.33867 23.0608 9.008C22.8954 8.67733 22.8128 8.304 22.8128 7.888C22.8128 7.46667 22.9008 7.09333 23.0768 6.768C23.2528 6.43733 23.4981 6.176 23.8128 5.984C24.1274 5.792 24.4874 5.696 24.8928 5.696ZM29.3478 5.84H31.2278C31.3344 5.84 31.4224 5.87733 31.4918 5.952C31.5664 6.02133 31.6038 6.10933 31.6038 6.216C31.6038 6.31733 31.5664 6.40267 31.4918 6.472C31.4224 6.54133 31.3344 6.576 31.2278 6.576H29.3478C29.2411 6.576 29.1504 6.54133 29.0758 6.472C29.0064 6.39733 28.9718 6.30933 28.9718 6.208C28.9718 6.10133 29.0064 6.01333 29.0758 5.944C29.1504 5.87467 29.2411 5.84 29.3478 5.84ZM30.1878 4.8C30.3051 4.8 30.4011 4.84 30.4758 4.92C30.5504 4.99467 30.5878 5.09067 30.5878 5.208V8.92C30.5878 9.016 30.6038 9.09333 30.6358 9.152C30.6678 9.21067 30.7104 9.25067 30.7638 9.272C30.8224 9.29333 30.8811 9.304 30.9398 9.304C30.9984 9.304 31.0491 9.29333 31.0918 9.272C31.1398 9.25067 31.1958 9.24 31.2598 9.24C31.3238 9.24 31.3824 9.26933 31.4358 9.328C31.4891 9.38667 31.5158 9.46667 31.5158 9.568C31.5158 9.696 31.4464 9.8 31.3078 9.88C31.1691 9.96 31.0198 10 30.8598 10C30.7691 10 30.6624 9.992 30.5398 9.976C30.4171 9.96 30.2971 9.92 30.1798 9.856C30.0678 9.792 29.9744 9.69067 29.8997 9.552C29.8251 9.408 29.7878 9.208 29.7878 8.952V5.208C29.7878 5.09067 29.8251 4.99467 29.8997 4.92C29.9797 4.84 30.0758 4.8 30.1878 4.8ZM33.2417 9.592C33.2417 9.70933 33.2044 9.808 33.1297 9.888C33.055 9.96267 32.959 10 32.8417 10C32.7297 10 32.6337 9.96267 32.5537 9.888C32.479 9.808 32.4417 9.70933 32.4417 9.592V6.168C32.4417 6.05067 32.479 5.95467 32.5537 5.88C32.6337 5.8 32.7297 5.76 32.8417 5.76C32.959 5.76 33.055 5.8 33.1297 5.88C33.2044 5.95467 33.2417 6.05067 33.2417 6.168V9.592ZM32.8337 5.232C32.679 5.232 32.567 5.20533 32.4977 5.152C32.4284 5.09333 32.3937 4.99733 32.3937 4.864V4.736C32.3937 4.60267 32.431 4.50933 32.5057 4.456C32.5804 4.40267 32.6924 4.376 32.8417 4.376C33.0017 4.376 33.1164 4.40533 33.1857 4.464C33.255 4.51733 33.2897 4.608 33.2897 4.736V4.864C33.2897 5.00267 33.2524 5.09867 33.1777 5.152C33.1084 5.20533 32.9937 5.232 32.8337 5.232ZM36.2778 10.08C35.8351 10.08 35.4511 9.98933 35.1258 9.808C34.8005 9.62133 34.5471 9.368 34.3658 9.048C34.1898 8.72267 34.1018 8.352 34.1018 7.936C34.1018 7.46667 34.1951 7.06667 34.3818 6.736C34.5738 6.4 34.8218 6.144 35.1258 5.968C35.4298 5.78667 35.7525 5.696 36.0938 5.696C36.3551 5.696 36.6031 5.74933 36.8378 5.856C37.0725 5.95733 37.2805 6.10133 37.4618 6.288C37.6485 6.46933 37.7951 6.68533 37.9018 6.936C38.0085 7.18133 38.0645 7.45067 38.0698 7.744C38.0645 7.85067 38.0218 7.93867 37.9418 8.008C37.8618 8.07733 37.7685 8.112 37.6618 8.112H34.5498L34.3578 7.432H37.3658L37.2138 7.576V7.376C37.2031 7.18933 37.1418 7.02667 37.0298 6.888C36.9178 6.744 36.7791 6.63467 36.6138 6.56C36.4485 6.48 36.2751 6.44 36.0938 6.44C35.9338 6.44 35.7791 6.46667 35.6298 6.52C35.4858 6.568 35.3551 6.648 35.2378 6.76C35.1258 6.872 35.0351 7.02133 34.9658 7.208C34.9018 7.38933 34.8698 7.616 34.8698 7.888C34.8698 8.18133 34.9311 8.43733 35.0538 8.656C35.1765 8.87467 35.3418 9.04533 35.5498 9.168C35.7578 9.28533 35.9871 9.344 36.2378 9.344C36.4351 9.344 36.5978 9.32533 36.7258 9.288C36.8538 9.24533 36.9605 9.19467 37.0458 9.136C37.1311 9.07733 37.2058 9.02133 37.2698 8.968C37.3498 8.92 37.4298 8.896 37.5098 8.896C37.6058 8.896 37.6858 8.93067 37.7498 9C37.8138 9.064 37.8458 9.14133 37.8458 9.232C37.8458 9.34933 37.7871 9.456 37.6698 9.552C37.5258 9.69067 37.3258 9.81333 37.0698 9.92C36.8191 10.0267 36.5551 10.08 36.2778 10.08ZM36.1738 4.584L35.5338 5.12C35.4751 5.168 35.4245 5.208 35.3818 5.24C35.3445 5.26667 35.2858 5.28 35.2058 5.28C35.1471 5.28 35.0965 5.264 35.0538 5.232C35.0165 5.19467 34.9978 5.152 34.9978 5.104C34.9978 5.072 35.0031 5.04 35.0138 5.008C35.0245 4.976 35.0485 4.93867 35.0858 4.896L35.5418 4.352C35.6431 4.21867 35.7791 4.152 35.9498 4.152H36.1898C36.2805 4.152 36.3525 4.168 36.4058 4.2C36.4591 4.22667 36.5098 4.27733 36.5578 4.352L36.9898 4.896C37.0218 4.93867 37.0431 4.976 37.0538 5.008C37.0645 5.03467 37.0698 5.06667 37.0698 5.104C37.0698 5.152 37.0511 5.19467 37.0138 5.232C36.9765 5.264 36.9285 5.28 36.8698 5.28C36.7845 5.28 36.7231 5.26667 36.6858 5.24C36.6485 5.208 36.5978 5.16533 36.5338 5.112L35.8458 4.528L36.1738 4.584ZM37.1098 4.632C37.0725 4.632 37.0245 4.61333 36.9658 4.576C36.9125 4.53333 36.8885 4.47733 36.8938 4.408C36.8938 4.36533 36.9098 4.32 36.9418 4.272L37.4138 3.472C37.4511 3.40267 37.5018 3.34133 37.5658 3.288C37.6351 3.22933 37.7125 3.2 37.7978 3.2C37.9205 3.2 38.0138 3.23467 38.0778 3.304C38.1418 3.368 38.1711 3.45067 38.1658 3.552C38.1605 3.6 38.1471 3.648 38.1258 3.696C38.1045 3.744 38.0751 3.792 38.0378 3.84L37.4298 4.504C37.3818 4.552 37.3285 4.58667 37.2698 4.608C37.2165 4.624 37.1631 4.632 37.1098 4.632ZM41.0941 5.72C41.4674 5.72 41.7981 5.81333 42.0861 6C42.3794 6.18667 42.6114 6.44267 42.7821 6.768C42.9527 7.088 43.0381 7.46133 43.0381 7.888C43.0381 8.31467 42.9527 8.69333 42.7821 9.024C42.6114 9.34933 42.3821 9.60533 42.0941 9.792C41.8061 9.97867 41.4807 10.072 41.1181 10.072C40.9154 10.072 40.7234 10.04 40.5421 9.976C40.3607 9.912 40.2007 9.82933 40.0621 9.728C39.9234 9.62133 39.8087 9.50933 39.7181 9.392C39.6327 9.27467 39.5794 9.16533 39.5581 9.064L39.7741 8.96V11.192C39.7741 11.3093 39.7341 11.4053 39.6541 11.48C39.5794 11.56 39.4861 11.6 39.3741 11.6C39.2567 11.6 39.1607 11.56 39.0861 11.48C39.0114 11.4053 38.9741 11.3093 38.9741 11.192V6.184C38.9741 6.072 39.0114 5.976 39.0861 5.896C39.1607 5.816 39.2567 5.776 39.3741 5.776C39.4861 5.776 39.5794 5.816 39.6541 5.896C39.7341 5.976 39.7741 6.072 39.7741 6.184V6.736L39.6461 6.664C39.6621 6.56267 39.7127 6.45867 39.7981 6.352C39.8834 6.24 39.9901 6.136 40.1181 6.04C40.2514 5.944 40.4007 5.86667 40.5661 5.808C40.7367 5.74933 40.9127 5.72 41.0941 5.72ZM41.0061 6.456C40.7501 6.456 40.5261 6.52 40.3341 6.648C40.1474 6.77067 40.0007 6.93867 39.8941 7.152C39.7874 7.36533 39.7341 7.61067 39.7341 7.888C39.7341 8.16 39.7874 8.408 39.8941 8.632C40.0007 8.85067 40.1474 9.024 40.3341 9.152C40.5261 9.27467 40.7501 9.336 41.0061 9.336C41.2567 9.336 41.4754 9.27467 41.6621 9.152C41.8487 9.024 41.9954 8.85067 42.1021 8.632C42.2141 8.408 42.2701 8.16 42.2701 7.888C42.2701 7.616 42.2141 7.37333 42.1021 7.16C41.9954 6.94133 41.8487 6.77067 41.6621 6.648C41.4754 6.52 41.2567 6.456 41.0061 6.456Z" fill="white"/>
<defs>
<linearGradient id="paint0_linear_182_3493" x1="24" y1="0" x2="24" y2="14" gradientUnits="userSpaceOnUse">
<stop stop-color="#FF8183"/>
<stop offset="1" stop-color="#FF2427"/>
</linearGradient>
</defs>
</svg>
