<svg width="24" height="24" viewBox="0 0 24 24" fill="none" xmlns="http://www.w3.org/2000/svg">
<g clip-path="url(#clip0_1040_9326)">
<path d="M23.8806 11.608C23.8271 11.5283 22.5459 9.63422 20.4645 7.71718C19.2321 6.58224 17.9733 5.67554 16.7229 5.02234C15.1267 4.18844 13.5377 3.76562 12 3.76562C10.4624 3.76562 8.87344 4.18844 7.27721 5.02234C6.02678 5.67559 4.76795 6.58224 3.53561 7.71718C1.45413 9.63422 0.173039 11.5283 0.119461 11.608C-0.0398202 11.8451 -0.0398202 12.1549 0.119461 12.392C0.172992 12.4717 1.45413 14.3658 3.53556 16.2829C4.76791 17.4178 6.02678 18.3245 7.27717 18.9777C8.8734 19.8116 10.4624 20.2344 12 20.2344C13.5376 20.2344 15.1266 19.8116 16.7228 18.9777C17.9733 18.3245 19.2321 17.4178 20.4644 16.2829C22.5459 14.3658 23.827 12.4717 23.8805 12.392C24.0398 12.1549 24.0398 11.8451 23.8806 11.608ZM19.4897 15.2688C17.7216 16.8926 14.987 18.8282 12.0001 18.8282C9.01318 18.8282 6.27854 16.8926 4.51047 15.2688C3.08721 13.9618 2.04166 12.6382 1.56818 12C2.04175 11.3618 3.08721 10.0382 4.51042 8.73123C6.2785 7.10748 9.01313 5.17187 12 5.17187C14.987 5.17187 17.7216 7.10748 19.4897 8.73123C20.9128 10.0383 21.9584 11.3619 22.4319 12C21.9583 12.6382 20.9128 13.9618 19.4897 15.2688Z" fill="white"/>
<path d="M12 8.28442C9.95125 8.28442 8.28442 9.95125 8.28442 12.0001C8.28442 14.0489 9.95125 15.7157 12 15.7157C14.0488 15.7157 15.7157 14.0489 15.7157 12.0001C15.7157 9.95125 14.0488 8.28442 12 8.28442ZM12 14.3094C10.7267 14.3094 9.69067 13.2734 9.69067 12C9.69067 10.7266 10.7267 9.69062 12 9.69062C13.2734 9.69062 14.3094 10.7266 14.3094 12C14.3094 13.2734 13.2735 14.3094 12 14.3094Z" fill="white"/>
</g>
<defs>
<clipPath id="clip0_1040_9326">
<rect width="24" height="24" fill="white"/>
</clipPath>
</defs>
</svg>
