<svg width="32" height="32" viewBox="0 0 32 32" fill="none" xmlns="http://www.w3.org/2000/svg">
<g opacity="0.6" clip-path="url(#clip0_38_400)">
<path d="M30.55 6.69375C30.1125 5.29375 28.975 4.23125 27.5437 3.90625C19.875 2.1375 12.125 2.1375 4.45625 3.9C3.03125 4.23125 1.8875 5.29375 1.45 6.6875C-0.487503 12.8687 -0.487503 19.1187 1.45 25.3062C1.8875 26.7063 3.025 27.7688 4.45625 28.0938C12.125 29.8563 19.875 29.8563 27.5437 28.0938C28.9687 27.7625 30.1125 26.7 30.55 25.3062C32.4812 19.125 32.4812 12.875 30.55 6.69375Z" fill="url(#paint0_linear_38_400)"/>
<path d="M0.15625 19.0562C0.36875 21.1437 0.8 23.2312 1.45 25.3062C1.8875 26.7062 3.025 27.7687 4.45625 28.0937C12.125 29.8562 19.875 29.8562 27.5438 28.0937C28.9688 27.7625 30.1125 26.7 30.55 25.3062C31.2 23.2312 31.6313 21.1437 31.8438 19.0562H0.15625Z" fill="url(#paint1_linear_38_400)"/>
<path d="M27.5437 28.1C28.9687 27.7688 30.1125 26.7063 30.55 25.3125C30.7875 24.5625 30.9937 23.8125 31.1687 23.0563L23.1687 15.0563C23.0437 14.875 22.8812 14.7063 22.6687 14.5813L14.1375 9.35626C13.0187 8.65626 11.6937 9.33126 11.6937 10.65V21.35C11.6937 21.9438 11.8625 22.4375 12.2937 22.7313L18.9 29.3375C21.7875 29.175 24.675 28.7563 27.5437 28.1Z" fill="url(#paint2_linear_38_400)"/>
<path d="M22.6687 14.5813L14.1375 9.23125C13.0187 8.53125 11.5687 9.33125 11.5687 10.65V21.35C11.5687 22.6688 13.0187 23.4688 14.1375 22.7688L22.6687 17.4188C23.7187 16.7625 23.7187 15.2375 22.6687 14.5813Z" fill="url(#paint3_linear_38_400)"/>
</g>
<defs>
<linearGradient id="paint0_linear_38_400" x1="7.88656" y1="7.88729" x2="24.6145" y2="24.6153" gradientUnits="userSpaceOnUse">
<stop stop-color="#949EA8"/>
<stop offset="1" stop-color="#4E5862"/>
</linearGradient>
<linearGradient id="paint1_linear_38_400" x1="15.9996" y1="22.7139" x2="15.9996" y2="29.1814" gradientUnits="userSpaceOnUse">
<stop stop-color="#4E5862" stop-opacity="0"/>
<stop offset="0.2669" stop-color="#48525C" stop-opacity="0.267"/>
<stop offset="0.7232" stop-color="#3E4352" stop-opacity="0.723"/>
<stop offset="1" stop-color="#3B454F"/>
</linearGradient>
<linearGradient id="paint2_linear_38_400" x1="24.4209" y1="26.7186" x2="18.2933" y2="18.1526" gradientUnits="userSpaceOnUse">
<stop stop-color="#4E5862" stop-opacity="0"/>
<stop offset="0.2669" stop-color="#48525C" stop-opacity="0.267"/>
<stop offset="0.7232" stop-color="#3E4352" stop-opacity="0.723"/>
<stop offset="1" stop-color="#3B454F"/>
</linearGradient>
<linearGradient id="paint3_linear_38_400" x1="14.1683" y1="15.3304" x2="17.8708" y2="19.0328" gradientUnits="userSpaceOnUse">
<stop stop-color="#EEF8FF"/>
<stop offset="1" stop-color="#E4EEF8"/>
</linearGradient>
<clipPath id="clip0_38_400">
<rect width="32" height="32" fill="white"/>
</clipPath>
</defs>
</svg>
