<svg width="48" height="48" viewBox="0 0 48 48" fill="none" xmlns="http://www.w3.org/2000/svg">
<rect x="12" y="12" width="24" height="24" fill="#358AF5"/>
<path d="M24 0C10.7354 0 0 10.7341 0 24C0 37.2647 10.7339 48 24 48C37.2647 48 48 37.2659 48 24C48 10.7353 37.2659 0 24 0ZM32.6473 26.6642L21.3698 33.1805C20.4184 33.7302 19.2453 33.7312 18.2923 33.1813C17.34 32.6317 16.7534 31.6158 16.7534 30.5164V17.4837C16.7534 16.3842 17.3401 15.3683 18.2923 14.8188C18.7682 14.5441 19.2993 14.4067 19.8304 14.4067C20.3619 14.4067 20.8936 14.5444 21.3698 14.8194L32.6474 21.3357C33.5989 21.8855 34.1849 22.901 34.1849 23.9999C34.1849 25.0989 33.5988 26.1143 32.6473 26.6642Z" fill="#B4DAFC"/>
</svg>
