<svg width="12" height="12" viewBox="0 0 12 12" fill="none" xmlns="http://www.w3.org/2000/svg">
<rect x="4" y="3" width="4" height="7.5" fill="#FF2427"/>
<path d="M11.7564 9.01418L7.51271 1.20157C7.19242 0.662363 6.62673 0.340332 5.99954 0.340332C5.37235 0.340332 4.80667 0.662363 4.48637 1.20157C4.48396 1.20569 4.48192 1.20982 4.4795 1.21394L0.249877 9.00182C-0.0772869 9.55239 -0.0834744 10.2136 0.233026 10.7703C0.550252 11.3274 1.12175 11.6598 1.7627 11.6598H10.2129C10.8539 11.6598 11.4489 11.3274 11.7661 10.7703C12.0826 10.2136 12.0764 9.55237 11.7564 9.01418ZM5.29571 3.91757C5.29571 3.52884 5.61083 3.21375 5.99954 3.21375C6.38828 3.21375 6.70337 3.52886 6.70337 3.91757V6.73291C6.70337 7.1216 6.38825 7.43674 5.99954 7.43674C5.61083 7.43674 5.29571 7.12157 5.29571 6.73291V3.91757ZM5.99954 10.2521C5.41738 10.2521 4.94378 9.77852 4.94378 9.19633C4.94378 8.61417 5.41735 8.14059 5.99954 8.14059C6.58171 8.14059 7.05528 8.61417 7.05528 9.19633C7.05531 9.7785 6.58173 10.2521 5.99954 10.2521Z" fill="#FFB3B4"/>
</svg>
