<svg width="32" height="32" viewBox="0 0 32 32" fill="none" xmlns="http://www.w3.org/2000/svg">
<g opacity="0.7" clip-path="url(#clip0_38_398)">
<path d="M27 16.6625C23.3313 15.2875 19.6625 15.4188 16 17.0375V17.6313C16 17.6063 16 17.4125 16 17.0375C12.3375 15.4125 8.6625 15.2875 5 16.6625C4.44375 16.8688 4.08125 17.4063 4.08125 18V31.075C4.08125 31.6063 4.6125 31.9813 5.1125 31.8C8.425 30.5875 11.7438 30.5938 15.0625 31.8375C15.6688 32.0625 16.3313 32.0625 16.9375 31.8375C20.25 30.6 23.5688 30.5875 26.8875 31.8C27.3875 31.9813 27.9188 31.6063 27.9188 31.075C27.9188 26.8188 27.9188 22.2625 27.9188 18C27.9188 17.4063 27.5563 16.875 27 16.6625Z" fill="url(#paint0_linear_38_398)"/>
<path d="M4.08125 31.0687C4.08125 31.6 4.6125 31.975 5.1125 31.7937C8.425 30.5812 11.7438 30.5875 15.0625 31.8312C15.6688 32.0562 16.3313 32.0562 16.9375 31.8312C20.25 30.5937 23.5688 30.5812 26.8875 31.7937C27.3875 31.975 27.9188 31.6 27.9188 31.0687C27.9188 28.9312 27.9188 26.725 27.9188 24.5125H4.08125C4.08125 26.725 4.08125 28.9375 4.08125 31.0687Z" fill="url(#paint1_linear_38_398)"/>
<path d="M27.9188 18V31.075C27.9188 31.6062 27.3875 31.9812 26.8875 31.8C23.5688 30.5875 20.25 30.6 16.9375 31.8375C16.3313 32.0625 15.6688 32.0625 15.0625 31.8375C12.2313 30.7812 9.40001 30.6187 6.56876 31.35L5.55626 30.3375V16.4687C9.03126 15.3062 12.5188 15.5 16 17.0437C19.6625 15.4187 23.3313 15.2937 27 16.6687C27.5563 16.875 27.9188 17.4062 27.9188 18Z" fill="url(#paint2_linear_38_398)"/>
<path d="M16 28.2625V30.8063C12.7375 29.3563 9.4625 29.2313 6.2 30.4313C5.75 30.5938 5.26875 30.2625 5.26875 29.7813V27.2375C5.26875 27.7188 5.74375 28.0563 6.2 27.8875C9.4625 26.6875 12.7375 26.8125 16 28.2625Z" fill="url(#paint3_linear_38_398)"/>
<path d="M26.7313 27.2313V29.775C26.7313 30.2563 26.2562 30.5938 25.8 30.425C22.5312 29.2313 19.2625 29.3563 16 30.8V28.2563C19.2625 26.8063 22.5312 26.6813 25.8 27.8813C26.25 28.05 26.7313 27.7125 26.7313 27.2313Z" fill="url(#paint4_linear_38_398)"/>
<path d="M25.8 29.7312C22.5313 28.5375 19.2625 28.6625 16 30.1062C12.7375 28.6562 9.4625 28.5312 6.2 29.7312C5.75 29.8937 5.26875 29.5625 5.26875 29.0812V29.7812C5.26875 30.2625 5.74375 30.6 6.2 30.4312C9.4625 29.2375 12.7375 29.3625 16 30.8062C19.2625 29.3562 22.5313 29.2312 25.8 30.4312C26.25 30.6 26.7313 30.2625 26.7313 29.7812V29.0812C26.7313 29.5562 26.25 29.8937 25.8 29.7312Z" fill="url(#paint5_linear_38_398)"/>
<path d="M5.26875 17.0312V28.525C5.26875 29.0062 5.74375 29.3437 6.2 29.175C9.4625 27.9812 12.7375 28.1 16 29.55C16 25.0875 16 20.625 16 16.1688C12.7 14.7063 9.39375 14.5937 6.1 15.8312C5.6 16.0187 5.26875 16.5 5.26875 17.0312Z" fill="url(#paint6_linear_38_398)"/>
<path d="M16 16.1688V29.55C19.2625 28.1062 22.5312 27.975 25.8 29.175C26.25 29.3375 26.7313 29 26.7313 28.525C26.7313 24.6937 26.7313 20.8625 26.7313 17.0312C26.7313 16.5 26.4 16.0187 25.9 15.8312C22.6 14.5937 19.2938 14.7063 16 16.1688Z" fill="url(#paint7_linear_38_398)"/>
<path d="M25.6187 22.5875C24.9312 22.3875 24.2437 22.25 23.5562 22.1688C23.1937 22.125 22.875 22.4063 22.875 22.7688V27.025C22.875 27.3313 23.1063 27.5938 23.4125 27.625C24.05 27.6938 24.6937 27.8125 25.3312 27.9813C25.6625 28.0688 25.9875 27.825 25.9875 27.4813V23.0875C25.9937 22.8563 25.8437 22.65 25.6187 22.5875Z" fill="url(#paint8_linear_38_398)"/>
<path d="M7.41251 22.925C8.91251 22.525 10.4125 22.4062 11.9188 22.5625C12.225 22.5937 12.4938 22.3562 12.4938 22.0437V17.625C12.4938 17.3625 12.3 17.1375 12.0375 17.1062C10.4 16.9187 8.76876 17.0625 7.13126 17.5312C6.90626 17.5937 6.75626 17.8 6.75626 18.0312V22.425C6.75626 22.7687 7.08126 23.0125 7.41251 22.925Z" fill="url(#paint9_linear_38_398)"/>
<path d="M6.6875 25.9063C6.5 25.9063 6.31875 25.7875 6.25625 25.5938C6.18125 25.3563 6.30625 25.1 6.54375 25.025C9.19375 24.1625 11.875 24.1438 14.525 24.9625C14.7625 25.0375 14.8938 25.2875 14.825 25.525C14.75 25.7625 14.5 25.8938 14.2625 25.825C11.8 25.0625 9.29375 25.0813 6.83125 25.8813C6.78125 25.9 6.7375 25.9063 6.6875 25.9063Z" fill="#A3ADB7"/>
<path d="M6.6875 27.7937C6.5 27.7937 6.31875 27.675 6.25625 27.4812C6.18125 27.2437 6.30625 26.9875 6.54375 26.9125C9.1875 26.05 11.875 26.0312 14.525 26.85C14.7625 26.925 14.8938 27.175 14.825 27.4125C14.75 27.65 14.5 27.7812 14.2625 27.7125C11.7938 26.95 9.29375 26.9687 6.83125 27.7687C6.78125 27.7875 6.7375 27.7937 6.6875 27.7937Z" fill="#A3ADB7"/>
<path d="M22.1937 24.8125C22.1937 25.0625 21.9875 25.2625 21.7375 25.2625C20.4812 25.2688 19.2187 25.475 17.975 25.8813C17.9312 25.8938 17.8812 25.9063 17.8375 25.9063C17.65 25.9063 17.4687 25.7875 17.4062 25.5938C17.3312 25.3563 17.4562 25.1 17.6937 25.025C19.0375 24.5875 20.3875 24.3688 21.7437 24.3625C21.9937 24.3625 22.1937 24.5688 22.1937 24.8125Z" fill="#A3ADB7"/>
<path d="M22.1937 26.7C22.1937 26.95 21.9875 27.15 21.7375 27.15C20.4812 27.1562 19.2187 27.3625 17.975 27.7687C17.9312 27.7812 17.8812 27.7938 17.8375 27.7938C17.65 27.7938 17.4687 27.675 17.4062 27.4813C17.3312 27.2438 17.4562 26.9875 17.6937 26.9125C19.0375 26.475 20.3875 26.2563 21.7437 26.25C21.9937 26.25 22.1937 26.45 22.1937 26.7Z" fill="#A3ADB7"/>
<path d="M17.8375 22.0938C17.65 22.0938 17.4687 21.975 17.4062 21.7813C17.3312 21.5438 17.4562 21.2875 17.6937 21.2125C20.3375 20.35 23.025 20.3313 25.675 21.15C25.9125 21.225 26.0437 21.475 25.975 21.7125C25.9 21.95 25.65 22.0813 25.4125 22.0125C22.95 21.25 20.4437 21.2688 17.9812 22.0688C17.9312 22.0875 17.8875 22.0938 17.8375 22.0938Z" fill="#A3ADB7"/>
<path d="M22.1937 22.8875C22.1937 23.1375 21.9875 23.3375 21.7375 23.3375C20.4812 23.3437 19.2187 23.55 17.975 23.9562C17.9312 23.9687 17.8812 23.9813 17.8375 23.9813C17.65 23.9813 17.4687 23.8625 17.4062 23.6688C17.3312 23.4313 17.4562 23.175 17.6937 23.1C19.0375 22.6625 20.3875 22.4438 21.7437 22.4375C21.9937 22.4375 22.1937 22.6438 22.1937 22.8875Z" fill="#A3ADB7"/>
<path d="M17.8375 18.2875C17.65 18.2875 17.4687 18.1688 17.4062 17.975C17.3312 17.7375 17.4562 17.4813 17.6937 17.4063C20.3375 16.5438 23.025 16.525 25.675 17.3438C25.9125 17.4188 26.0437 17.6688 25.975 17.9063C25.9 18.1438 25.65 18.275 25.4125 18.2063C22.95 17.4438 20.4437 17.4625 17.9812 18.2625C17.9312 18.2813 17.8875 18.2875 17.8375 18.2875Z" fill="#A3ADB7"/>
<path d="M17.8375 20.1688C17.65 20.1688 17.4687 20.05 17.4062 19.8563C17.3312 19.6188 17.4562 19.3625 17.6937 19.2875C19.5062 18.6938 21.35 18.5 23.1687 18.7C23.4187 18.725 23.5937 18.95 23.5687 19.2C23.5437 19.45 23.3187 19.625 23.0687 19.6C21.3812 19.4125 19.6625 19.6 17.975 20.15C17.9312 20.1625 17.8875 20.1688 17.8375 20.1688Z" fill="#A3ADB7"/>
<path d="M5.26875 17.0312V28.525C5.26875 29.0062 5.74375 29.3437 6.2 29.175C9.4625 27.9812 12.7375 28.1 16 29.55C16 25.0875 16 20.625 16 16.1688C12.7 14.7063 9.39375 14.5937 6.1 15.8312C5.6 16.0187 5.26875 16.5 5.26875 17.0312Z" fill="url(#paint10_linear_38_398)"/>
<path d="M16 16.1688V29.55C19.2625 28.1062 22.5312 27.975 25.8 29.175C26.25 29.3375 26.7313 29 26.7313 28.525C26.7313 24.6937 26.7313 20.8625 26.7313 17.0312C26.7313 16.5 26.4 16.0187 25.9 15.8312C22.6 14.5937 19.2938 14.7063 16 16.1688Z" fill="url(#paint11_linear_38_398)"/>
<path d="M23.9938 7.99375C23.9938 3.58125 20.4125 0 16 0C11.5938 0 8.02501 3.55 8.00626 7.95625C7.99376 10.325 9.01251 12.4563 10.6438 13.925C11.8875 15.0437 12.5813 16.65 12.5813 18.325H19.4188C19.4188 16.6375 20.1438 15.0375 21.3938 13.8938C22.9938 12.4313 23.9938 10.3313 23.9938 7.99375Z" fill="url(#paint12_linear_38_398)"/>
<path d="M9.43126 12.55C9.78126 13.0563 10.1875 13.5125 10.6438 13.925C11.8875 15.0438 12.5813 16.65 12.5813 18.325H19.4188C19.4188 16.6375 20.1438 15.0375 21.3938 13.8938C21.8313 13.4938 22.225 13.0438 22.5688 12.55H9.43126Z" fill="url(#paint13_linear_38_398)"/>
<path d="M16 24.3125C17.2979 24.3125 18.35 23.2604 18.35 21.9625C18.35 20.6646 17.2979 19.6125 16 19.6125C14.7021 19.6125 13.65 20.6646 13.65 21.9625C13.65 23.2604 14.7021 24.3125 16 24.3125Z" fill="url(#paint14_linear_38_398)"/>
<path d="M18.8563 22.025H13.1438C12.5 22.025 11.9813 21.5062 11.9813 20.8625C11.9813 20.2187 12.5 19.7 13.1438 19.7H18.8563C19.5 19.7 20.0188 20.2187 20.0188 20.8625C20.0188 21.5062 19.4938 22.025 18.8563 22.025Z" fill="url(#paint15_linear_38_398)"/>
<path d="M18.8563 19.7H13.1438C12.5 19.7 11.9813 19.1813 11.9813 18.5375C11.9813 17.8938 12.5 17.375 13.1438 17.375H18.8563C19.5 17.375 20.0188 17.8938 20.0188 18.5375C20.0188 19.1813 19.4938 19.7 18.8563 19.7Z" fill="url(#paint16_linear_38_398)"/>
<path d="M16 16.5187C18.6889 16.5187 20.8688 14.3389 20.8688 11.65C20.8688 8.96106 18.6889 6.78125 16 6.78125C13.3111 6.78125 11.1313 8.96106 11.1313 11.65C11.1313 14.3389 13.3111 16.5187 16 16.5187Z" fill="url(#paint17_linear_38_398)"/>
<path d="M26.8313 7.35624C26.8313 6.79999 27.2813 6.34999 27.8375 6.34999H29.9313C30.4875 6.34999 30.9375 6.79999 30.9375 7.35624C30.9375 7.91249 30.4875 8.36249 29.9313 8.36249H27.8375C27.2813 8.36249 26.8313 7.91249 26.8313 7.35624Z" fill="url(#paint18_linear_38_398)"/>
<path d="M26.1438 4.7625C25.75 4.36875 25.75 3.73125 26.1438 3.3375L27.625 1.8625C28.0188 1.46875 28.6563 1.46875 29.05 1.8625C29.4438 2.25625 29.4438 2.89375 29.05 3.2875L27.5688 4.76875C27.175 5.15625 26.5375 5.15625 26.1438 4.7625Z" fill="url(#paint19_linear_38_398)"/>
<path d="M26.1438 9.94999C26.5375 9.55624 27.175 9.55624 27.5688 9.94999L29.05 11.4312C29.4438 11.825 29.4438 12.4625 29.05 12.8562C28.6563 13.25 28.0188 13.25 27.625 12.8562L26.1438 11.375C25.75 10.975 25.75 10.3375 26.1438 9.94999Z" fill="url(#paint20_linear_38_398)"/>
<path d="M5.16876 7.35624C5.16876 6.79999 4.71876 6.34999 4.16251 6.34999H2.07501C1.51876 6.34999 1.06876 6.79999 1.06876 7.35624C1.06876 7.91249 1.51876 8.36249 2.07501 8.36249H4.16876C4.71876 8.36249 5.16876 7.91249 5.16876 7.35624Z" fill="url(#paint21_linear_38_398)"/>
<path d="M5.85626 4.7625C6.25001 4.36875 6.25001 3.73125 5.85626 3.3375L4.37501 1.8625C3.98126 1.46875 3.34376 1.46875 2.95001 1.8625C2.55626 2.25625 2.55626 2.89375 2.95001 3.2875L4.43126 4.76875C4.82501 5.15625 5.46251 5.15625 5.85626 4.7625Z" fill="url(#paint22_linear_38_398)"/>
<path d="M5.85626 9.94999C5.46251 9.55624 4.82501 9.55624 4.43126 9.94999L2.95001 11.4312C2.55626 11.825 2.55626 12.4625 2.95001 12.8562C3.34376 13.25 3.98126 13.25 4.37501 12.8562L5.85626 11.375C6.25001 10.975 6.25001 10.3375 5.85626 9.94999Z" fill="url(#paint23_linear_38_398)"/>
</g>
<defs>
<linearGradient id="paint0_linear_38_398" x1="6.37805" y1="18.7067" x2="28.3839" y2="31.6066" gradientUnits="userSpaceOnUse">
<stop stop-color="#C4CED8"/>
<stop offset="1" stop-color="#646E78"/>
</linearGradient>
<linearGradient id="paint1_linear_38_398" x1="15.9997" y1="27.8991" x2="15.9997" y2="31.1621" gradientUnits="userSpaceOnUse">
<stop stop-color="#46505A" stop-opacity="0"/>
<stop offset="1" stop-color="#46505A"/>
</linearGradient>
<linearGradient id="paint2_linear_38_398" x1="25.6052" y1="31.5901" x2="17.2058" y2="24.3106" gradientUnits="userSpaceOnUse">
<stop stop-color="#46505A" stop-opacity="0"/>
<stop offset="1" stop-color="#46505A"/>
</linearGradient>
<linearGradient id="paint3_linear_38_398" x1="9.32523" y1="22.2605" x2="10.9107" y2="30.4829" gradientUnits="userSpaceOnUse">
<stop stop-color="#EDF7FF"/>
<stop offset="1" stop-color="#C9D3DD"/>
</linearGradient>
<linearGradient id="paint4_linear_38_398" x1="19.3651" y1="23.1501" x2="21.6881" y2="29.9714" gradientUnits="userSpaceOnUse">
<stop stop-color="#EDF7FF"/>
<stop offset="1" stop-color="#C9D3DD"/>
</linearGradient>
<linearGradient id="paint5_linear_38_398" x1="15.8378" y1="32.7771" x2="16.2434" y2="24.4073" gradientUnits="userSpaceOnUse">
<stop stop-color="#B9C3CD" stop-opacity="0"/>
<stop offset="1" stop-color="#B9C3CD"/>
</linearGradient>
<linearGradient id="paint6_linear_38_398" x1="5.64211" y1="19.6084" x2="18.5925" y2="27.2263" gradientUnits="userSpaceOnUse">
<stop stop-color="#EDF7FF"/>
<stop offset="1" stop-color="#C9D3DD"/>
</linearGradient>
<linearGradient id="paint7_linear_38_398" x1="15.6677" y1="19.5842" x2="28.1593" y2="26.9069" gradientUnits="userSpaceOnUse">
<stop stop-color="#EDF7FF"/>
<stop offset="1" stop-color="#C9D3DD"/>
</linearGradient>
<linearGradient id="paint8_linear_38_398" x1="20.8375" y1="21.473" x2="25.7908" y2="26.4263" gradientUnits="userSpaceOnUse">
<stop stop-color="#B9C3CD" stop-opacity="0"/>
<stop offset="1" stop-color="#B9C3CD"/>
</linearGradient>
<linearGradient id="paint9_linear_38_398" x1="5.69061" y1="14.8073" x2="15.9982" y2="28.4838" gradientUnits="userSpaceOnUse">
<stop stop-color="#B9C3CD" stop-opacity="0"/>
<stop offset="1" stop-color="#B9C3CD"/>
</linearGradient>
<linearGradient id="paint10_linear_38_398" x1="8.82059" y1="25.5189" x2="13.6727" y2="18.9935" gradientUnits="userSpaceOnUse">
<stop stop-color="#B9C3CD" stop-opacity="0"/>
<stop offset="1" stop-color="#F3FDFF"/>
</linearGradient>
<linearGradient id="paint11_linear_38_398" x1="24.0791" y1="25.7401" x2="17.4341" y2="19.0952" gradientUnits="userSpaceOnUse">
<stop stop-color="#B9C3CD" stop-opacity="0"/>
<stop offset="1" stop-color="#F3FDFF"/>
</linearGradient>
<linearGradient id="paint12_linear_38_398" x1="12.5428" y1="5.7588" x2="21.2354" y2="14.4514" gradientUnits="userSpaceOnUse">
<stop stop-color="#DDE7F1"/>
<stop offset="1" stop-color="#B0BAC4"/>
</linearGradient>
<linearGradient id="paint13_linear_38_398" x1="15.9995" y1="14.0134" x2="15.9995" y2="17.3726" gradientUnits="userSpaceOnUse">
<stop stop-color="#939DA7" stop-opacity="0"/>
<stop offset="0.1854" stop-color="#8E98A2" stop-opacity="0.185"/>
<stop offset="0.4314" stop-color="#818B95" stop-opacity="0.431"/>
<stop offset="0.7114" stop-color="#6C7680" stop-opacity="0.711"/>
<stop offset="1" stop-color="#505A64"/>
</linearGradient>
<linearGradient id="paint14_linear_38_398" x1="15.9997" y1="20.9436" x2="15.9997" y2="22.8566" gradientUnits="userSpaceOnUse">
<stop stop-color="#5A646E"/>
<stop offset="1" stop-color="#444E58"/>
</linearGradient>
<linearGradient id="paint15_linear_38_398" x1="15.9997" y1="20.361" x2="15.9997" y2="21.3048" gradientUnits="userSpaceOnUse">
<stop stop-color="#CBD5DF"/>
<stop offset="1" stop-color="#A3ADB7"/>
</linearGradient>
<linearGradient id="paint16_linear_38_398" x1="15.9997" y1="18.0395" x2="15.9997" y2="18.9833" gradientUnits="userSpaceOnUse">
<stop stop-color="#CBD5DF"/>
<stop offset="1" stop-color="#A3ADB7"/>
</linearGradient>
<linearGradient id="paint17_linear_38_398" x1="15.9997" y1="13.6161" x2="15.9997" y2="2.78852" gradientUnits="userSpaceOnUse">
<stop stop-color="#F3FDFF" stop-opacity="0"/>
<stop offset="1" stop-color="#F3FDFF"/>
</linearGradient>
<linearGradient id="paint18_linear_38_398" x1="28.8855" y1="6.4442" x2="28.8855" y2="9.23724" gradientUnits="userSpaceOnUse">
<stop stop-color="#DDE7F1"/>
<stop offset="1" stop-color="#B0BAC4"/>
</linearGradient>
<linearGradient id="paint19_linear_38_398" x1="26.9154" y1="2.65" x2="28.8902" y2="4.62485" gradientUnits="userSpaceOnUse">
<stop stop-color="#DDE7F1"/>
<stop offset="1" stop-color="#B0BAC4"/>
</linearGradient>
<linearGradient id="paint20_linear_38_398" x1="28.2649" y1="10.7229" x2="26.2901" y2="12.6978" gradientUnits="userSpaceOnUse">
<stop stop-color="#DDE7F1"/>
<stop offset="1" stop-color="#B0BAC4"/>
</linearGradient>
<linearGradient id="paint21_linear_38_398" x1="3.11323" y1="6.4442" x2="3.11323" y2="9.23724" gradientUnits="userSpaceOnUse">
<stop stop-color="#DDE7F1"/>
<stop offset="1" stop-color="#B0BAC4"/>
</linearGradient>
<linearGradient id="paint22_linear_38_398" x1="5.0889" y1="2.64812" x2="3.11405" y2="4.62296" gradientUnits="userSpaceOnUse">
<stop stop-color="#DDE7F1"/>
<stop offset="1" stop-color="#B0BAC4"/>
</linearGradient>
<linearGradient id="paint23_linear_38_398" x1="3.73935" y1="10.7248" x2="5.71418" y2="12.6996" gradientUnits="userSpaceOnUse">
<stop stop-color="#DDE7F1"/>
<stop offset="1" stop-color="#B0BAC4"/>
</linearGradient>
<clipPath id="clip0_38_398">
<rect width="32" height="32" fill="white"/>
</clipPath>
</defs>
</svg>
