<svg width="32" height="32" viewBox="0 0 32 32" fill="none" xmlns="http://www.w3.org/2000/svg">
<rect width="32" height="32" rx="12" fill="#333333" fill-opacity="0.5"/>
<path d="M23.4225 14.6033C23.0494 14.2303 22.5535 14.0249 22.0247 14.0249L14.7434 14.0248L15.633 13.1353C16.0066 12.7622 16.2124 12.2659 16.2124 11.7378C16.2124 10.6487 15.3263 9.76276 14.2368 9.76276C13.7095 9.76276 13.2137 9.96816 12.8405 10.3413L8.58128 14.6006C8.305 14.8758 8.11791 15.2222 8.04019 15.6024C8.0135 15.7325 8 15.8663 8 16C8 16.5291 8.20647 17.026 8.58072 17.3988L12.8397 21.6578C13.2128 22.0315 13.7092 22.2373 14.2373 22.2373C15.3263 22.2373 16.2123 21.3512 16.2124 20.2622C16.2125 19.7348 16.0071 19.2387 15.6339 18.8655L14.7435 17.9751H22.0258C22.5535 17.9751 23.0496 17.7696 23.4225 17.3965C24.1925 16.6264 24.1925 15.3734 23.4225 14.6033Z" fill="white"/>
</svg>
