<svg width="24" height="24" viewBox="0 0 24 24" fill="none" xmlns="http://www.w3.org/2000/svg">
<g clip-path="url(#clip0_106_4682)">
<path d="M21.7439 0.0114746C21.2548 0.0114746 20.7283 0.211831 20.1805 0.589396L6.85115 9.77234C5.99312 10.3633 5.52588 11.1585 5.52588 12.0123C5.52568 12.8662 6.00148 13.662 6.85971 14.2529L20.2005 23.4293C20.7493 23.807 21.298 24 21.7861 24H21.7867C22.3099 24 22.7066 23.7858 23.0158 23.3692C23.3207 22.9578 23.4383 22.3734 23.4383 21.6665V2.35895C23.4385 0.911329 22.8167 0.0114746 21.7439 0.0114746Z" fill="white"/>
<path d="M2.58265 0.00175069L1.94014 0C1.21672 0 0.561768 0.58901 0.561768 1.31282V22.6819C0.561768 23.4057 1.19513 23.9998 1.91894 23.9998H1.94112L2.57078 23.9963C3.2944 23.9963 3.9369 23.4048 3.9369 22.681V1.31438C3.9371 0.590566 3.30549 0.00175069 2.58265 0.00175069Z" fill="white"/>
</g>
<defs>
<clipPath id="clip0_106_4682">
<rect width="24" height="24" fill="white"/>
</clipPath>
</defs>
</svg>
