<svg width="48" height="48" viewBox="0 0 48 48" fill="none" xmlns="http://www.w3.org/2000/svg">
<rect x="12" y="12" width="24" height="24" fill="#358AF5"/>
<path d="M24 0C10.7452 0 0 10.7452 0 24C0 37.2548 10.7452 48 24 48C37.2548 48 48 37.2548 48 24C48 10.7452 37.2548 0 24 0ZM21.3398 30.4091C21.3398 31.9706 20.074 33.2364 18.5125 33.2364C16.951 33.2364 15.6852 31.9706 15.6852 30.4091V17.5909C15.6852 16.0294 16.951 14.7636 18.5125 14.7636C20.074 14.7636 21.3398 16.0294 21.3398 17.5909V30.4091ZM32.1075 30.4091C32.1075 31.9706 30.8417 33.2364 29.2802 33.2364C27.7187 33.2364 26.4529 31.9706 26.4529 30.4091V17.5909C26.4529 16.0294 27.7187 14.7636 29.2802 14.7636C30.8417 14.7636 32.1075 16.0294 32.1075 17.5909V30.4091Z" fill="#B4DAFC"/>
</svg>
