<svg width="20" height="20" viewBox="0 0 20 20" fill="none" xmlns="http://www.w3.org/2000/svg">
<path d="M0.83326 2.08918V5.31918C0.851229 6.04707 1.43705 6.63289 2.16494 6.65086C2.91904 6.66949 3.54545 6.07328 3.56408 5.31918V5.16668L6.77076 7.91668C7.01842 8.12824 7.33338 8.24465 7.65908 8.245C8.059 8.24609 8.43928 8.07172 8.69943 7.76801C9.18986 7.19547 9.1233 6.33375 8.55076 5.84336L5.79408 3.48004C6.329 3.28195 6.68451 2.77227 6.6856 2.20184C6.68705 1.4475 6.07674 0.834843 5.3224 0.833359H2.0724C1.99252 0.834296 1.50646 0.848359 1.14838 1.25C0.842713 1.59281 0.832908 1.99078 0.83326 2.08918Z" fill="white"/>
<path d="M2.19828 19.1667H5.3191C5.88953 19.1656 6.39922 18.8101 6.59731 18.2751C6.85926 17.5678 6.49817 16.7819 5.79078 16.52L8.54746 14.1558C8.55594 14.1488 8.56434 14.1416 8.57262 14.1343C9.13899 13.6367 9.19473 12.7742 8.69719 12.2079C8.19965 11.6415 7.33715 11.5858 6.77082 12.0833L3.56414 14.8333V14.6808C3.54617 13.953 2.96035 13.3672 2.23246 13.3492C1.47836 13.3305 0.851955 13.9267 0.833323 14.6808V17.8017C0.832346 17.891 0.836018 18.3742 1.22266 18.7656C1.61676 19.1646 2.11188 19.1676 2.19828 19.1667Z" fill="white"/>
<path d="M19.1668 17.9108V14.6808C19.1488 13.9529 18.563 13.3671 17.8351 13.3491C17.081 13.3305 16.4546 13.9267 16.4359 14.6808V14.8333L13.2284 12.0833C12.6588 11.6043 11.8105 11.6699 11.3212 12.2307C10.8257 12.7988 10.8845 13.6611 11.4526 14.1567L14.2093 16.52C13.6743 16.7181 13.3188 17.2278 13.3177 17.7982C13.3163 18.5525 13.9266 19.1652 14.6809 19.1667H17.8018C17.88 19.1735 18.3564 19.2073 18.754 18.8477C19.1608 18.4797 19.1671 17.9875 19.1668 17.9108Z" fill="white"/>
<path d="M17.9168 0.833313H14.6809C14.1105 0.834407 13.6008 1.18991 13.4027 1.72484C13.1408 2.43222 13.5019 3.21804 14.2093 3.47995L11.4526 5.84327C11.1497 6.10269 10.9755 6.48152 10.9756 6.88027C10.9758 7.63413 11.587 8.24511 12.3409 8.24495C12.6667 8.24488 12.9818 8.12843 13.2293 7.91663L16.4351 5.16663V5.31913C16.453 6.04702 17.0389 6.63284 17.7668 6.65081C18.5209 6.66945 19.1473 6.07323 19.1659 5.31913V2.19831C19.1746 2.07718 19.1836 1.72835 18.9577 1.39339C18.6053 0.871047 17.9877 0.836165 17.9168 0.833313Z" fill="white"/>
</svg>
