<svg width="28" height="28" viewBox="0 0 28 28" fill="none" xmlns="http://www.w3.org/2000/svg">
<path d="M9.33333 16.3333H2.33333C1.71449 16.3333 1.121 16.5792 0.683417 17.0168C0.245833 17.4543 0 18.0478 0 18.6667C0 19.2855 0.245833 19.879 0.683417 20.3166C1.121 20.7542 1.71449 21 2.33333 21H7V25.6667C7 26.2855 7.24583 26.879 7.68342 27.3166C8.121 27.7542 8.7145 28 9.33333 28C9.95217 28 10.5457 27.7542 10.9832 27.3166C11.4208 26.879 11.6667 26.2855 11.6667 25.6667V18.6667C11.6667 18.0478 11.4208 17.4543 10.9832 17.0168C10.5457 16.5792 9.95217 16.3333 9.33333 16.3333Z" fill="white"/>
<path d="M25.6668 16.3333H18.6668C18.048 16.3333 17.4545 16.5792 17.0169 17.0168C16.5793 17.4543 16.3335 18.0478 16.3335 18.6667V25.6667C16.3335 26.2855 16.5793 26.879 17.0169 27.3166C17.4545 27.7542 18.048 28 18.6668 28C19.2857 28 19.8792 27.7542 20.3167 27.3166C20.7543 26.879 21.0002 26.2855 21.0002 25.6667V21H25.6668C26.2857 21 26.8792 20.7542 27.3167 20.3166C27.7543 19.879 28.0002 19.2855 28.0002 18.6667C28.0002 18.0478 27.7543 17.4543 27.3167 17.0168C26.8792 16.5792 26.2857 16.3333 25.6668 16.3333Z" fill="white"/>
<path d="M9.33333 0C8.7145 0 8.121 0.245833 7.68342 0.683417C7.24583 1.121 7 1.71449 7 2.33333V7H2.33333C1.71449 7 1.121 7.24583 0.683417 7.68342C0.245833 8.121 0 8.7145 0 9.33333C0 9.95217 0.245833 10.5457 0.683417 10.9832C1.121 11.4208 1.71449 11.6667 2.33333 11.6667H9.33333C9.95217 11.6667 10.5457 11.4208 10.9832 10.9832C11.4208 10.5457 11.6667 9.95217 11.6667 9.33333V2.33333C11.6667 1.71449 11.4208 1.121 10.9832 0.683417C10.5457 0.245833 9.95217 0 9.33333 0Z" fill="white"/>
<path d="M18.6668 11.6667H25.6668C26.2857 11.6667 26.8792 11.4208 27.3167 10.9832C27.7543 10.5457 28.0002 9.95217 28.0002 9.33333C28.0002 8.7145 27.7543 8.121 27.3167 7.68342C26.8792 7.24583 26.2857 7 25.6668 7H21.0002V2.33333C21.0002 1.71449 20.7543 1.121 20.3167 0.683417C19.8792 0.245833 19.2857 0 18.6668 0C18.048 0 17.4545 0.245833 17.0169 0.683417C16.5793 1.121 16.3335 1.71449 16.3335 2.33333V9.33333C16.3335 9.95217 16.5793 10.5457 17.0169 10.9832C17.4545 11.4208 18.048 11.6667 18.6668 11.6667Z" fill="white"/>
</svg>
