<svg width="20" height="20" viewBox="0 0 20 20" fill="none" xmlns="http://www.w3.org/2000/svg">
<path d="M19.2769 15.7855L15.8798 12.3885C16.5215 11.1845 16.862 9.83387 16.862 8.43094C16.862 6.17895 15.985 4.06172 14.3926 2.46934C12.8002 0.876992 10.683 0 8.43094 0C8.43094 0 8.4309 0 8.43086 0C3.78211 0 7.8125e-05 3.78215 0 8.43098C0 10.683 0.876992 12.8002 2.46941 14.3926C4.06184 15.985 6.17898 16.862 8.43094 16.862C9.83387 16.862 11.1844 16.5214 12.3885 15.8798L15.7856 19.277C16.2519 19.7432 16.8718 20 17.5313 20C18.1907 20 18.8107 19.7432 19.2768 19.277C19.7432 18.8106 20 18.1906 20 17.5312C20 16.8718 19.7432 16.2518 19.2769 15.7855ZM8.43094 13.0963C5.85852 13.0963 3.76562 11.0035 3.76555 8.43102C3.7657 5.85848 5.85867 3.76559 8.43102 3.76555C11.0036 3.76559 13.0964 5.85848 13.0964 8.43098C13.0964 11.0035 11.0035 13.0963 8.43094 13.0963Z" fill="white"/>
</svg>
