<svg width="24" height="24" viewBox="0 0 24 24" fill="none" xmlns="http://www.w3.org/2000/svg">
<g clip-path="url(#clip0_106_4683)">
<path d="M17.2996 9.76708L3.95687 0.589459C3.40862 0.211521 2.83841 0.0120544 2.35024 0.0120544C1.27845 0.0120544 0.567871 0.911017 0.567871 2.35764V21.6548C0.567871 22.3615 0.773365 22.9519 1.07801 23.3629C1.38732 23.7795 1.87121 24 2.39399 24C2.88196 24 3.42962 23.8001 3.97767 23.4228L17.3083 14.2452C18.1653 13.6545 18.6352 12.8596 18.635 12.0057C18.635 11.1523 18.1577 10.3573 17.2996 9.76708Z" fill="white"/>
<path d="M22.1845 23.994L22.1703 23.9938C22.1679 23.9938 22.1657 23.994 22.1633 23.994H22.1845Z" fill="white"/>
<path d="M22.1454 0L21.5938 0.0015553C20.8716 0.0015553 20.2463 0.590236 20.2463 1.31345V22.6681C20.2463 23.3921 20.8613 23.9864 21.5845 23.9864L22.1704 23.9938C22.89 23.9899 23.432 23.3905 23.432 22.6692V1.31209C23.432 0.588875 22.8682 0 22.1454 0Z" fill="white"/>
</g>
<defs>
<clipPath id="clip0_106_4683">
<rect width="24" height="24" fill="white"/>
</clipPath>
</defs>
</svg>
