<svg width="28" height="28" viewBox="0 0 28 28" fill="none" xmlns="http://www.w3.org/2000/svg">
<path d="M4.31519 5.60716C6.54238 3.37998 9.50368 2.15335 12.6532 2.15335C17.1183 2.15335 21.2021 4.68992 23.1951 8.6569H26.0269C26.4669 8.6569 26.8597 8.9195 27.0283 9.32597C27.1967 9.7326 27.1044 10.1963 26.7932 10.5074L23.1754 14.1253C22.9905 14.3102 22.7445 14.4121 22.4829 14.4121C22.2213 14.4121 21.9755 14.3103 21.7908 14.1256L18.1726 10.5074C17.8616 10.1963 17.7693 9.7326 17.9377 9.32597C18.1059 8.9195 18.4991 8.6569 18.9391 8.6569H21.4399C19.5998 5.60604 16.2706 3.69144 12.6532 3.69144C6.99916 3.69144 2.39931 8.29129 2.39931 13.9454C2.39931 19.5993 6.99916 24.1991 12.6532 24.1991C15.3922 24.1991 17.9672 23.1327 19.9039 21.1962C20.2041 20.8958 20.6912 20.8958 20.9914 21.1962C21.2918 21.4963 21.2918 21.9833 20.9914 22.2836C18.7644 24.5108 15.8031 25.7372 12.6532 25.7372C9.50336 25.7372 6.54238 24.5108 4.31503 22.2836C2.08769 20.0564 0.861223 17.0951 0.861223 13.9454C0.861223 10.7956 2.08769 7.83435 4.31519 5.60716Z" fill="white"/>
<path d="M9.0235 17.419C8.85024 17.419 8.70791 17.3731 8.59653 17.2812C8.48514 17.184 8.42945 17.0652 8.42945 16.9248V12.8414L8.5594 13.0197L7.8818 13.4572C7.79517 13.5166 7.68688 13.5463 7.55693 13.5463C7.40841 13.5463 7.27846 13.4977 7.16708 13.4005C7.05569 13.3032 7 13.1871 7 13.0521C7 12.8792 7.09592 12.7388 7.28775 12.6308L8.62437 11.853C8.68625 11.8152 8.75432 11.7882 8.82858 11.772C8.90902 11.7558 8.98328 11.7477 9.05135 11.7477C9.2308 11.7477 9.37313 11.7963 9.47833 11.8935C9.58353 11.9853 9.63612 12.1015 9.63612 12.2419V16.9248C9.63612 17.0652 9.57734 17.184 9.45976 17.2812C9.34838 17.3731 9.20296 17.419 9.0235 17.419Z" fill="white"/>
<path d="M13.2717 17.5C12.7395 17.5 12.2878 17.3785 11.9165 17.1354C11.5514 16.8869 11.2729 16.544 11.0811 16.1065C10.8893 15.6636 10.7933 15.1559 10.7933 14.5833C10.7933 14.0054 10.8893 13.4977 11.0811 13.0602C11.2729 12.6227 11.5514 12.2824 11.9165 12.0393C12.2878 11.7909 12.7395 11.6667 13.2717 11.6667C13.8038 11.6667 14.2525 11.7909 14.6176 12.0393C14.9889 12.2824 15.2704 12.6227 15.4623 13.0602C15.6541 13.4977 15.75 14.0054 15.75 14.5833C15.75 15.1559 15.6541 15.6636 15.4623 16.1065C15.2704 16.544 14.9889 16.8869 14.6176 17.1354C14.2525 17.3785 13.8038 17.5 13.2717 17.5ZM13.2717 16.5278C13.5316 16.5278 13.7543 16.4576 13.94 16.3171C14.1318 16.1713 14.2803 15.9552 14.3855 15.669C14.4907 15.3773 14.5433 15.0154 14.5433 14.5833C14.5433 14.1458 14.4907 13.7839 14.3855 13.4977C14.2803 13.2114 14.1318 12.9981 13.94 12.8576C13.7543 12.7118 13.5316 12.6389 13.2717 12.6389C13.018 12.6389 12.7952 12.7118 12.6034 12.8576C12.4115 12.9981 12.263 13.2114 12.1578 13.4977C12.0526 13.7839 12 14.1458 12 14.5833C12 15.0154 12.0526 15.3773 12.1578 15.669C12.263 15.9552 12.4115 16.1713 12.6034 16.3171C12.7952 16.4576 13.018 16.5278 13.2717 16.5278Z" fill="white"/>
</svg>
