<svg width="24" height="24" viewBox="0 0 24 24" fill="none" xmlns="http://www.w3.org/2000/svg">
<path d="M21.738 2.26229C18.7219 -0.753793 13.8143 -0.753746 10.7983 2.26229C8.7383 4.32225 8.02298 7.35877 8.91459 10.1131L0.206016 18.8217C0.0741094 18.9535 0 19.1324 0 19.3189V23.297C0 23.6854 0.314859 24.0002 0.703219 24.0002H4.68131C4.86787 24.0002 5.04666 23.9261 5.17861 23.7942L6.1733 22.7995C6.32522 22.6476 6.39938 22.4345 6.37453 22.2211L6.25041 21.1531L7.73091 21.0135C8.06709 20.9819 8.33334 20.7157 8.36503 20.3795L8.50467 18.8988L9.57272 19.0229C9.77213 19.0462 9.97172 18.983 10.1216 18.8496C10.2714 18.7162 10.3572 18.5251 10.3572 18.3244V17.0148H11.643C11.8281 17.0148 12.0057 16.9418 12.1373 16.8117L13.8845 15.0847C16.6394 15.9777 19.6774 15.2626 21.738 13.2019C24.754 10.1859 24.754 5.27832 21.738 2.26229ZM20.7435 12.2075C18.9685 13.9824 16.306 14.5364 13.9605 13.6191C13.7017 13.5179 13.4076 13.5785 13.21 13.7738L11.3541 15.6083H9.65391C9.26555 15.6083 8.95069 15.9232 8.95069 16.3116V17.5347L7.95319 17.4188C7.76527 17.397 7.57655 17.4517 7.4295 17.5707C7.2825 17.6897 7.18959 17.8629 7.17183 18.0512L7.01934 19.6679L5.40281 19.8203C5.21447 19.838 5.04127 19.9309 4.9222 20.0779C4.80319 20.2249 4.74839 20.4137 4.77023 20.6016L4.93814 22.0456L4.38998 22.5938H1.40639V19.6103L10.2234 10.7933C10.421 10.5957 10.4829 10.3 10.3811 10.0398C9.46369 7.6943 10.0178 5.03189 11.7927 3.25688C14.2605 0.789191 18.2757 0.789191 20.7434 3.25688C23.2111 5.72452 23.2111 9.73979 20.7435 12.2075Z" fill="#B4DAFC"/>
<path d="M19.7489 4.25097C18.9263 3.42836 17.5879 3.42841 16.7654 4.25097C15.9428 5.07354 15.9428 6.41196 16.7654 7.23452C17.5879 8.05708 18.9263 8.05718 19.7489 7.23452C20.5715 6.41196 20.5715 5.07354 19.7489 4.25097ZM18.7544 6.24002C18.4802 6.51419 18.0341 6.51424 17.7599 6.24002C17.4857 5.96585 17.4857 5.51974 17.7599 5.24552C18.0348 4.97064 18.4795 4.97064 18.7544 5.24552C19.0293 5.52039 19.0292 5.96514 18.7544 6.24002Z" fill="#B4DAFC"/>
</svg>
