<svg width="24" height="24" viewBox="0 0 24 24" fill="none" xmlns="http://www.w3.org/2000/svg">
<rect x="6" y="6" width="12" height="12" fill="white"/>
<path d="M12 0C5.38298 0 0 5.38327 0 12C0 18.6167 5.38298 24 12 24C18.617 24 24 18.6167 24 12C24 5.38327 18.617 0 12 0ZM17.6362 10.6641L12.0632 16.2371C11.4518 16.8485 10.4613 16.8485 9.84984 16.2371L6.62466 13.0119C6.01322 12.4007 6.01322 11.4097 6.62466 10.7985C7.23609 10.1871 8.22656 10.1871 8.838 10.7985L10.9565 12.9168L15.4229 8.45067C16.0343 7.83923 17.0248 7.83923 17.6362 8.45067C18.2476 9.06192 18.2476 10.0529 17.6362 10.6641Z" fill="#85D55A"/>
</svg>
