<svg width="10" height="10" viewBox="0 0 10 10" fill="none" xmlns="http://www.w3.org/2000/svg">
<g clip-path="url(#clip0_1391_3351)">
<path d="M5.74434 5.00005L9.84586 0.898536C10.0514 0.692989 10.0514 0.359748 9.84586 0.154221C9.64031 -0.0513256 9.30705 -0.0513256 9.10153 0.154221L4.99999 4.25574L0.898475 0.154221C0.692928 -0.0513256 0.359687 -0.0513256 0.15416 0.154221C-0.0513671 0.359767 -0.0513866 0.693009 0.15416 0.898536L4.25568 5.00005L0.15416 9.10157C-0.0513866 9.30711 -0.0513866 9.64036 0.15416 9.84588C0.359706 10.0514 0.692948 10.0514 0.898475 9.84588L4.99999 5.74437L9.10149 9.84588C9.30703 10.0514 9.64029 10.0514 9.84582 9.84588C10.0513 9.64034 10.0513 9.30709 9.84582 9.10157L5.74434 5.00005Z" fill="#999A99"/>
</g>
<defs>
<clipPath id="clip0_1391_3351">
<rect width="10" height="10" fill="white"/>
</clipPath>
</defs>
</svg>
