<svg width="72" height="78" viewBox="0 0 72 78" fill="none" xmlns="http://www.w3.org/2000/svg">
<rect width="72" height="72" rx="30" fill="white"/>
<g clip-path="url(#clip0_1376_1927)">
<path d="M54.1844 24.3653C53.6375 22.6191 52.213 21.2877 50.4298 20.8773C40.8467 18.6714 31.153 18.6714 21.5701 20.8773C19.7868 21.2877 18.3624 22.6191 17.8155 24.3653C15.3945 32.0951 15.3949 39.9058 17.8156 47.6348C18.3625 49.381 19.787 50.7124 21.5701 51.1228C31.1531 53.3286 40.8467 53.3286 50.4298 51.1228C52.213 50.7124 53.6374 49.381 54.1843 47.6348C56.6051 39.9057 56.6054 32.0952 54.1844 24.3653Z" fill="url(#paint0_linear_1376_1927)"/>
<path d="M16.1967 39.8224C16.4635 42.4316 17.0023 45.0378 17.8156 47.6347C18.3625 49.3808 19.787 50.7123 21.5701 51.1227C31.1531 53.3285 40.8467 53.3285 50.4298 51.1227C52.213 50.7123 53.6374 49.3809 54.1843 47.6347C54.9977 45.0378 55.5364 42.4316 55.8032 39.8224H16.1967Z" fill="url(#paint1_linear_1376_1927)"/>
<path d="M50.4299 51.1227C52.2131 50.7123 53.6375 49.3809 54.1844 47.6347C54.4781 46.697 54.7354 45.7581 54.9578 44.8182L44.9611 34.8215C44.8047 34.5914 44.598 34.3865 44.3394 34.2243L33.6738 27.6919C32.278 26.8165 30.6212 27.6628 30.6212 29.3105V42.6893C30.6212 43.4341 30.8354 44.0464 31.3705 44.4138L39.6294 52.6727C43.2373 52.4654 46.8414 51.9487 50.4299 51.1227Z" fill="url(#paint2_linear_1376_1927)"/>
<path d="M44.3394 34.2244L33.6738 27.5351C32.278 26.6597 30.4642 27.663 30.4642 29.3107V42.6895C30.4642 44.3371 32.278 45.3405 33.6738 44.4651L44.3394 37.7757C45.6491 36.9542 45.6491 35.0459 44.3394 34.2244Z" fill="url(#paint3_linear_1376_1927)"/>
</g>
<path d="M11.1025 74C10.9105 74 10.7545 73.944 10.6345 73.832C10.5225 73.712 10.4665 73.564 10.4665 73.388V66.2H11.7505V73.388C11.7505 73.564 11.6865 73.712 11.5585 73.832C11.4385 73.944 11.2865 74 11.1025 74ZM8.37853 66.752C8.21053 66.752 8.06653 66.7 7.94653 66.596C7.82653 66.484 7.76653 66.34 7.76653 66.164C7.76653 65.996 7.82653 65.86 7.94653 65.756C8.06653 65.652 8.21053 65.6 8.37853 65.6H13.8385C14.0065 65.6 14.1465 65.656 14.2585 65.768C14.3785 65.872 14.4385 66.008 14.4385 66.176C14.4385 66.352 14.3785 66.492 14.2585 66.596C14.1465 66.7 14.0065 66.752 13.8385 66.752H8.37853ZM15.5494 74C15.3734 74 15.2294 73.944 15.1174 73.832C15.0054 73.712 14.9494 73.564 14.9494 73.388V68.3C14.9494 68.124 15.0054 67.98 15.1174 67.868C15.2294 67.748 15.3734 67.688 15.5494 67.688C15.7174 67.688 15.8574 67.748 15.9694 67.868C16.0894 67.98 16.1494 68.124 16.1494 68.3V69.644L16.0294 69.128C16.0934 68.904 16.1894 68.696 16.3174 68.504C16.4534 68.312 16.6134 68.144 16.7974 68C16.9814 67.856 17.1854 67.744 17.4094 67.664C17.6414 67.584 17.8814 67.544 18.1294 67.544C18.3374 67.544 18.5174 67.6 18.6694 67.712C18.8214 67.824 18.8974 67.964 18.8974 68.132C18.8974 68.348 18.8414 68.508 18.7294 68.612C18.6174 68.708 18.4934 68.756 18.3574 68.756C18.2374 68.756 18.1214 68.732 18.0094 68.684C17.8974 68.628 17.7654 68.6 17.6134 68.6C17.4454 68.6 17.2734 68.644 17.0974 68.732C16.9214 68.82 16.7614 68.952 16.6174 69.128C16.4734 69.296 16.3574 69.496 16.2694 69.728C16.1894 69.96 16.1494 70.22 16.1494 70.508V73.388C16.1494 73.564 16.0894 73.712 15.9694 73.832C15.8574 73.944 15.7174 74 15.5494 74ZM24.9964 67.592C25.1724 67.592 25.3164 67.652 25.4284 67.772C25.5404 67.884 25.5964 68.028 25.5964 68.204V73.388C25.5964 73.564 25.5404 73.712 25.4284 73.832C25.3164 73.944 25.1724 74 24.9964 74C24.8284 74 24.6844 73.944 24.5644 73.832C24.4524 73.712 24.3964 73.564 24.3964 73.388V72.524L24.6484 72.56C24.6484 72.704 24.5884 72.864 24.4684 73.04C24.3564 73.216 24.2004 73.388 24.0004 73.556C23.8004 73.716 23.5644 73.852 23.2924 73.964C23.0204 74.068 22.7284 74.12 22.4164 74.12C21.8644 74.12 21.3684 73.98 20.9284 73.7C20.4884 73.412 20.1404 73.02 19.8844 72.524C19.6284 72.028 19.5004 71.464 19.5004 70.832C19.5004 70.184 19.6284 69.616 19.8844 69.128C20.1404 68.632 20.4844 68.244 20.9164 67.964C21.3564 67.684 21.8444 67.544 22.3804 67.544C22.7244 67.544 23.0404 67.6 23.3284 67.712C23.6244 67.824 23.8804 67.968 24.0964 68.144C24.3124 68.32 24.4764 68.508 24.5884 68.708C24.7084 68.9 24.7684 69.084 24.7684 69.26L24.3964 69.296V68.204C24.3964 68.036 24.4524 67.892 24.5644 67.772C24.6844 67.652 24.8284 67.592 24.9964 67.592ZM22.5484 73.016C22.9244 73.016 23.2564 72.92 23.5444 72.728C23.8324 72.536 24.0564 72.276 24.2164 71.948C24.3764 71.612 24.4564 71.24 24.4564 70.832C24.4564 70.416 24.3764 70.044 24.2164 69.716C24.0564 69.388 23.8324 69.128 23.5444 68.936C23.2564 68.744 22.9244 68.648 22.5484 68.648C22.1804 68.648 21.8524 68.744 21.5644 68.936C21.2844 69.128 21.0604 69.388 20.8924 69.716C20.7324 70.044 20.6524 70.416 20.6524 70.832C20.6524 71.24 20.7324 71.612 20.8924 71.948C21.0604 72.276 21.2844 72.536 21.5644 72.728C21.8524 72.92 22.1804 73.016 22.5484 73.016ZM30.5295 67.544C31.0975 67.544 31.5375 67.664 31.8495 67.904C32.1615 68.136 32.3775 68.452 32.4975 68.852C32.6255 69.244 32.6895 69.684 32.6895 70.172V73.388C32.6895 73.564 32.6295 73.712 32.5095 73.832C32.3975 73.944 32.2575 74 32.0895 74C31.9135 74 31.7695 73.944 31.6575 73.832C31.5455 73.712 31.4895 73.564 31.4895 73.388V70.184C31.4895 69.896 31.4495 69.64 31.3695 69.416C31.2895 69.184 31.1495 69 30.9495 68.864C30.7575 68.72 30.4855 68.648 30.1335 68.648C29.8055 68.648 29.5175 68.72 29.2695 68.864C29.0215 69 28.8255 69.184 28.6815 69.416C28.5455 69.64 28.4775 69.896 28.4775 70.184V73.388C28.4775 73.564 28.4175 73.712 28.2975 73.832C28.1855 73.944 28.0455 74 27.8775 74C27.7015 74 27.5575 73.944 27.4455 73.832C27.3335 73.712 27.2775 73.564 27.2775 73.388V68.3C27.2775 68.124 27.3335 67.98 27.4455 67.868C27.5575 67.748 27.7015 67.688 27.8775 67.688C28.0455 67.688 28.1855 67.748 28.2975 67.868C28.4175 67.98 28.4775 68.124 28.4775 68.3V68.972L28.2615 69.092C28.3175 68.916 28.4135 68.74 28.5495 68.564C28.6935 68.38 28.8655 68.212 29.0655 68.06C29.2655 67.9 29.4895 67.776 29.7375 67.688C29.9855 67.592 30.2495 67.544 30.5295 67.544ZM36.9836 67.544C37.3276 67.544 37.6436 67.6 37.9316 67.712C38.2196 67.824 38.4676 67.968 38.6756 68.144C38.8916 68.312 39.0596 68.488 39.1796 68.672C39.2996 68.856 39.3596 69.016 39.3596 69.152L39.0836 69.164V68.204C39.0836 68.036 39.1396 67.892 39.2516 67.772C39.3636 67.652 39.5076 67.592 39.6836 67.592C39.8596 67.592 40.0036 67.652 40.1156 67.772C40.2276 67.884 40.2836 68.028 40.2836 68.204V73.496C40.2836 74.176 40.1396 74.728 39.8516 75.152C39.5636 75.584 39.1796 75.9 38.6996 76.1C38.2276 76.3 37.7076 76.4 37.1396 76.4C36.9396 76.4 36.7036 76.372 36.4316 76.316C36.1596 76.268 35.9076 76.208 35.6756 76.136C35.4516 76.064 35.2956 75.992 35.2076 75.92C35.0236 75.824 34.8996 75.712 34.8356 75.584C34.7796 75.456 34.7796 75.328 34.8356 75.2C34.9156 75.024 35.0236 74.916 35.1596 74.876C35.2956 74.836 35.4516 74.848 35.6276 74.912C35.7076 74.936 35.8316 74.98 35.9996 75.044C36.1676 75.108 36.3556 75.164 36.5636 75.212C36.7716 75.268 36.9676 75.296 37.1516 75.296C37.7916 75.296 38.2716 75.148 38.5916 74.852C38.9196 74.556 39.0836 74.152 39.0836 73.64V72.56L39.2156 72.644C39.1916 72.812 39.1156 72.984 38.9876 73.16C38.8676 73.328 38.7076 73.484 38.5076 73.628C38.3076 73.772 38.0756 73.892 37.8116 73.988C37.5556 74.076 37.2916 74.12 37.0196 74.12C36.4516 74.12 35.9436 73.98 35.4956 73.7C35.0476 73.412 34.6916 73.024 34.4276 72.536C34.1636 72.04 34.0316 71.472 34.0316 70.832C34.0316 70.192 34.1636 69.628 34.4276 69.14C34.6916 68.644 35.0436 68.256 35.4836 67.976C35.9316 67.688 36.4316 67.544 36.9836 67.544ZM37.1636 68.648C36.7716 68.648 36.4276 68.744 36.1316 68.936C35.8356 69.128 35.6036 69.388 35.4356 69.716C35.2676 70.044 35.1836 70.416 35.1836 70.832C35.1836 71.248 35.2676 71.62 35.4356 71.948C35.6036 72.276 35.8356 72.536 36.1316 72.728C36.4276 72.92 36.7716 73.016 37.1636 73.016C37.5556 73.016 37.8996 72.924 38.1956 72.74C38.4916 72.548 38.7236 72.288 38.8916 71.96C39.0596 71.624 39.1436 71.248 39.1436 70.832C39.1436 70.416 39.0596 70.044 38.8916 69.716C38.7236 69.38 38.4916 69.12 38.1956 68.936C37.8996 68.744 37.5556 68.648 37.1636 68.648ZM48.0852 67.544C48.5172 67.544 48.9012 67.592 49.2372 67.688C49.5732 67.776 49.8332 67.904 50.0172 68.072C50.2092 68.232 50.3052 68.42 50.3052 68.636C50.3052 68.772 50.2652 68.9 50.1852 69.02C50.1052 69.132 49.9852 69.188 49.8252 69.188C49.7132 69.188 49.6172 69.168 49.5372 69.128C49.4652 69.088 49.3972 69.04 49.3332 68.984C49.2692 68.928 49.1892 68.872 49.0932 68.816C49.0052 68.768 48.8732 68.728 48.6972 68.696C48.5292 68.664 48.3772 68.648 48.2412 68.648C47.8172 68.648 47.4492 68.744 47.1372 68.936C46.8332 69.128 46.5932 69.388 46.4172 69.716C46.2492 70.044 46.1652 70.416 46.1652 70.832C46.1652 71.248 46.2492 71.62 46.4172 71.948C46.5932 72.276 46.8292 72.536 47.1252 72.728C47.4292 72.92 47.7812 73.016 48.1812 73.016C48.4212 73.016 48.6172 73 48.7692 72.968C48.9212 72.928 49.0532 72.88 49.1652 72.824C49.2852 72.752 49.3852 72.68 49.4652 72.608C49.5532 72.528 49.6732 72.488 49.8252 72.488C50.0012 72.488 50.1332 72.544 50.2212 72.656C50.3172 72.76 50.3652 72.892 50.3652 73.052C50.3652 73.228 50.2572 73.4 50.0412 73.568C49.8332 73.728 49.5532 73.86 49.2012 73.964C48.8492 74.068 48.4612 74.12 48.0372 74.12C47.4132 74.12 46.8692 73.976 46.4052 73.688C45.9492 73.4 45.5932 73.008 45.3372 72.512C45.0892 72.016 44.9652 71.456 44.9652 70.832C44.9652 70.2 45.0972 69.64 45.3612 69.152C45.6252 68.656 45.9932 68.264 46.4652 67.976C46.9372 67.688 47.4772 67.544 48.0852 67.544ZM54.6919 67.58C55.2439 67.58 55.6719 67.7 55.9759 67.94C56.2799 68.172 56.4919 68.488 56.6119 68.888C56.7399 69.288 56.8039 69.728 56.8039 70.208V73.388C56.8039 73.564 56.7439 73.712 56.6239 73.832C56.5119 73.944 56.3719 74 56.2039 74C56.0279 74 55.8839 73.944 55.7719 73.832C55.6599 73.712 55.6039 73.564 55.6039 73.388V70.208C55.6039 69.928 55.5639 69.672 55.4839 69.44C55.4119 69.208 55.2799 69.024 55.0879 68.888C54.9039 68.752 54.6439 68.684 54.3079 68.684C53.9959 68.684 53.7159 68.752 53.4679 68.888C53.2279 69.024 53.0399 69.208 52.9039 69.44C52.7759 69.672 52.7119 69.928 52.7119 70.208V73.388C52.7119 73.564 52.6519 73.712 52.5319 73.832C52.4199 73.944 52.2799 74 52.1119 74C51.9359 74 51.7919 73.944 51.6799 73.832C51.5679 73.712 51.5119 73.564 51.5119 73.388V65.732C51.5119 65.556 51.5679 65.412 51.6799 65.3C51.7919 65.18 51.9359 65.12 52.1119 65.12C52.2799 65.12 52.4199 65.18 52.5319 65.3C52.6519 65.412 52.7119 65.556 52.7119 65.732V69.008L52.4959 69.128C52.5519 68.952 52.6439 68.772 52.7719 68.588C52.9079 68.404 53.0719 68.236 53.2639 68.084C53.4639 67.932 53.6839 67.812 53.9239 67.724C54.1639 67.628 54.4199 67.58 54.6919 67.58ZM63.1768 67.688C63.3448 67.688 63.4848 67.748 63.5968 67.868C63.7168 67.98 63.7768 68.124 63.7768 68.3V71.456C63.7768 72.288 63.5448 72.94 63.0808 73.412C62.6168 73.876 61.9608 74.108 61.1128 74.108C60.2728 74.108 59.6208 73.876 59.1568 73.412C58.7008 72.94 58.4728 72.288 58.4728 71.456V68.3C58.4728 68.124 58.5288 67.98 58.6408 67.868C58.7528 67.748 58.8968 67.688 59.0728 67.688C59.2408 67.688 59.3808 67.748 59.4928 67.868C59.6128 67.98 59.6728 68.124 59.6728 68.3V71.456C59.6728 71.976 59.7928 72.364 60.0328 72.62C60.2808 72.876 60.6408 73.004 61.1128 73.004C61.5928 73.004 61.9568 72.876 62.2048 72.62C62.4528 72.364 62.5768 71.976 62.5768 71.456V68.3C62.5768 68.124 62.6328 67.98 62.7448 67.868C62.8568 67.748 63.0008 67.688 63.1768 67.688ZM60.0448 65.228C60.1728 65.124 60.3088 65.04 60.4528 64.976C60.5968 64.912 60.7728 64.88 60.9808 64.88C61.2848 64.88 61.5208 64.932 61.6888 65.036C61.8568 65.14 61.9688 65.272 62.0248 65.432C62.0888 65.584 62.1208 65.728 62.1208 65.864C62.1208 66 62.0968 66.12 62.0488 66.224C62.0008 66.32 61.9328 66.424 61.8448 66.536C61.7728 66.616 61.7128 66.688 61.6648 66.752C61.6248 66.816 61.6008 66.884 61.5928 66.956C61.5928 67.036 61.5568 67.104 61.4848 67.16C61.4208 67.216 61.3408 67.244 61.2448 67.244C61.1488 67.244 61.0648 67.216 60.9928 67.16C60.9208 67.104 60.8848 67.032 60.8848 66.944C60.8848 66.872 60.9008 66.796 60.9328 66.716C60.9648 66.636 61.0128 66.556 61.0768 66.476C61.1488 66.38 61.2168 66.288 61.2808 66.2C61.3448 66.112 61.3768 66.028 61.3768 65.948C61.3768 65.844 61.3328 65.764 61.2448 65.708C61.1648 65.644 61.0688 65.612 60.9568 65.612C60.8528 65.612 60.7568 65.636 60.6688 65.684C60.5888 65.724 60.5128 65.772 60.4408 65.828C60.3768 65.868 60.3048 65.892 60.2248 65.9C60.1448 65.9 60.0608 65.856 59.9728 65.768C59.8848 65.672 59.8568 65.576 59.8888 65.48C59.9208 65.376 59.9728 65.292 60.0448 65.228Z" fill="#89B4D1"/>
<defs>
<linearGradient id="paint0_linear_1376_1927" x1="25.8584" y1="25.8584" x2="46.7689" y2="46.7689" gradientUnits="userSpaceOnUse">
<stop stop-color="#FF637B"/>
<stop offset="1" stop-color="#F90217"/>
</linearGradient>
<linearGradient id="paint1_linear_1376_1927" x1="36" y1="44.3921" x2="36" y2="52.4767" gradientUnits="userSpaceOnUse">
<stop stop-color="#F90217" stop-opacity="0"/>
<stop offset="0.2669" stop-color="#E7010F" stop-opacity="0.267"/>
<stop offset="0.7232" stop-color="#CE0004" stop-opacity="0.723"/>
<stop offset="1" stop-color="#C50000"/>
</linearGradient>
<linearGradient id="paint2_linear_1376_1927" x1="46.5268" y1="49.3981" x2="38.8672" y2="38.6903" gradientUnits="userSpaceOnUse">
<stop stop-color="#F90217" stop-opacity="0"/>
<stop offset="0.2669" stop-color="#E7010F" stop-opacity="0.267"/>
<stop offset="0.7232" stop-color="#CE0004" stop-opacity="0.723"/>
<stop offset="1" stop-color="#C50000"/>
</linearGradient>
<linearGradient id="paint3_linear_1376_1927" x1="33.7108" y1="35.1626" x2="38.339" y2="39.7907" gradientUnits="userSpaceOnUse">
<stop stop-color="#EBEFF0"/>
<stop offset="1" stop-color="#E3E5E4"/>
</linearGradient>
<clipPath id="clip0_1376_1927">
<rect width="40" height="40" fill="white" transform="translate(16 16)"/>
</clipPath>
</defs>
</svg>
