<svg width="40" height="40" viewBox="0 0 40 40" fill="none" xmlns="http://www.w3.org/2000/svg">
<path d="M33.4688 14.5234H13.1328C11.5 14.5234 10.1719 13.1953 10.1719 11.5625C10.1719 9.92969 11.5 8.60156 13.1328 8.60156H33.4688C35.1016 8.60156 36.4297 9.92969 36.4297 11.5625C36.4297 13.1953 35.1016 14.5234 33.4688 14.5234Z" fill="url(#paint0_linear_353_2047)"/>
<path d="M6.53125 14.5234C4.89844 14.5234 3.57031 13.1953 3.57031 11.5625C3.57031 9.92969 4.89844 8.60156 6.53125 8.60156C8.16406 8.60156 9.49219 9.92969 9.49219 11.5625C9.49219 13.1953 8.17188 14.5234 6.53125 14.5234Z" fill="url(#paint1_linear_353_2047)"/>
<path d="M33.4688 22.9609H13.1328C11.5 22.9609 10.1719 21.6328 10.1719 20C10.1719 18.3672 11.5 17.0391 13.1328 17.0391H33.4688C35.1016 17.0391 36.4297 18.3672 36.4297 20C36.4297 21.6328 35.1016 22.9609 33.4688 22.9609Z" fill="url(#paint2_linear_353_2047)"/>
<path d="M6.53125 22.9609C4.89844 22.9609 3.57031 21.6328 3.57031 20C3.57031 18.3672 4.89844 17.0391 6.53125 17.0391C8.16406 17.0391 9.49219 18.3672 9.49219 20C9.49219 21.6328 8.17188 22.9609 6.53125 22.9609Z" fill="url(#paint3_linear_353_2047)"/>
<path d="M33.4688 31.3984H13.1328C11.5 31.3984 10.1719 30.0703 10.1719 28.4375C10.1719 26.8047 11.5 25.4766 13.1328 25.4766H33.4688C35.1016 25.4766 36.4297 26.8047 36.4297 28.4375C36.4297 30.0781 35.1016 31.3984 33.4688 31.3984Z" fill="url(#paint4_linear_353_2047)"/>
<path d="M6.53125 31.3984C4.89844 31.3984 3.57031 30.0703 3.57031 28.4375C3.57031 26.8047 4.89844 25.4766 6.53125 25.4766C8.16406 25.4766 9.49219 26.8047 9.49219 28.4375C9.49219 30.0781 8.17188 31.3984 6.53125 31.3984Z" fill="url(#paint5_linear_353_2047)"/>
<defs>
<linearGradient id="paint0_linear_353_2047" x1="23.3008" y1="8.60156" x2="23.3008" y2="14.5234" gradientUnits="userSpaceOnUse">
<stop stop-color="#4398FA"/>
<stop offset="1" stop-color="#358AF5"/>
</linearGradient>
<linearGradient id="paint1_linear_353_2047" x1="6.53125" y1="8.60156" x2="6.53125" y2="14.5234" gradientUnits="userSpaceOnUse">
<stop stop-color="#4398FA"/>
<stop offset="1" stop-color="#358AF5"/>
</linearGradient>
<linearGradient id="paint2_linear_353_2047" x1="23.3008" y1="17.0391" x2="23.3008" y2="22.9609" gradientUnits="userSpaceOnUse">
<stop stop-color="#4398FA"/>
<stop offset="1" stop-color="#358AF5"/>
</linearGradient>
<linearGradient id="paint3_linear_353_2047" x1="6.53125" y1="17.0391" x2="6.53125" y2="22.9609" gradientUnits="userSpaceOnUse">
<stop stop-color="#4398FA"/>
<stop offset="1" stop-color="#358AF5"/>
</linearGradient>
<linearGradient id="paint4_linear_353_2047" x1="23.3008" y1="25.4766" x2="23.3008" y2="31.3984" gradientUnits="userSpaceOnUse">
<stop stop-color="#4398FA"/>
<stop offset="1" stop-color="#358AF5"/>
</linearGradient>
<linearGradient id="paint5_linear_353_2047" x1="6.53125" y1="25.4766" x2="6.53125" y2="31.3984" gradientUnits="userSpaceOnUse">
<stop stop-color="#4398FA"/>
<stop offset="1" stop-color="#358AF5"/>
</linearGradient>
</defs>
</svg>
