<svg width="32" height="32" viewBox="0 0 32 32" fill="none" xmlns="http://www.w3.org/2000/svg">
<g opacity="0.7" clip-path="url(#clip0_38_399)">
<path d="M23.9312 11.2938C23.9312 10.0188 23.1062 8.89376 21.8937 8.50626L11.9375 5.30001C11.65 5.20626 11.35 5.16251 11.0438 5.16251C9.425 5.16251 8.11875 6.47501 8.11875 8.08751V17.7313C6.59375 17.4875 4.78125 17.8875 3.16875 18.9625C0.33125 20.8625 -0.812499 24.1313 0.612501 26.2625C2.04375 28.4 5.5 28.5938 8.33125 26.7C10.3813 25.3313 11.5438 23.2438 11.4938 21.3813V11.3438C11.4938 10.8438 11.9813 10.4875 12.4563 10.6438L20.025 13.0813C20.3312 13.1813 20.5375 13.4625 20.5375 13.7813V21.725C19.0125 21.4813 17.2 21.8813 15.5875 22.9563C12.75 24.85 11.6125 28.1188 13.0375 30.2563C14.4688 32.3938 17.925 32.5875 20.7563 30.6938C22.8062 29.325 23.9688 27.2375 23.9188 25.375L23.9312 11.2938Z" fill="url(#paint0_linear_38_399)"/>
<path d="M12.4625 10.6438C11.9875 10.4938 11.5 10.8438 11.5 11.3438V8.7625C11.5 8.2625 11.9875 7.90625 12.4625 8.0625L20.0312 10.5C20.3375 10.6 20.5438 10.8812 20.5438 11.2V13.7812C20.5438 13.4625 20.3375 13.175 20.0312 13.0813L12.4625 10.6438Z" fill="url(#paint1_linear_38_399)"/>
<path d="M0.612489 26.2625C2.04374 28.4 5.49999 28.5938 8.33124 26.7C10.3812 25.3313 11.5437 23.2438 11.4937 21.3813V21.2063H0.937489C-0.143762 22.9 -0.337512 24.8375 0.612489 26.2625Z" fill="url(#paint2_linear_38_399)"/>
<path d="M23.9312 25.3813H13.2562C12.275 27.0313 12.125 28.8813 13.0437 30.2563C14.475 32.3938 17.9312 32.5875 20.7625 30.6938C22.8125 29.325 23.9812 27.2438 23.9312 25.3813Z" fill="url(#paint3_linear_38_399)"/>
<path d="M11.5 21.0938L7.23123 25.3625L8.47498 26.6063C10.4375 25.2375 11.55 23.2 11.5 21.3813V21.0938Z" fill="url(#paint4_linear_38_399)"/>
<path d="M7.06248 23.8188L9.72498 19.6125C9.89373 19.3438 9.79998 18.9875 9.51248 18.8375L8.48748 18.3125C7.99998 18.0625 7.98748 17.375 8.46248 17.1063L13.9687 13.9875C15.1 13.35 16.3312 14.6438 15.6375 15.7375L12.975 19.9438C12.8062 20.2125 12.9 20.5688 13.1875 20.7188L14.2125 21.2438C14.7 21.4938 14.7125 22.1813 14.2375 22.45L8.73123 25.5688C7.59998 26.2063 6.36873 24.9125 7.06248 23.8188Z" fill="url(#paint5_linear_38_399)"/>
<path d="M23.9312 14.0688H20.55V21.725C19.025 21.4813 17.2125 21.8813 15.6 22.9563C15.0125 23.35 14.4937 23.8063 14.0562 24.2938H23.9312V14.0688Z" fill="url(#paint6_linear_38_399)"/>
<path d="M32 2.15625C32 3.7125 30.4875 4.8125 29.0062 4.3375L27.9187 3.9875C27.575 3.875 27.2187 4.1375 27.2187 4.5V11.8062C27.2562 13.1625 26.4125 14.6813 24.9187 15.675C22.8562 17.0562 20.3375 16.9125 19.3 15.3562C18.2625 13.8 19.0937 11.425 21.1562 10.0437C22.3312 9.25625 23.65 8.96875 24.7625 9.14375V2.13125C24.7625 1.54375 25 1.0125 25.3875 0.625C25.775 0.2375 26.3062 0 26.8937 0C27.1125 0 27.3312 0.03125 27.5437 0.1L31.425 1.35C31.7625 1.4625 32 1.7875 32 2.15625Z" fill="url(#paint7_linear_38_399)"/>
<path d="M27.9125 3.98749L29 4.33749C30.4812 4.81249 31.9937 3.71249 31.9937 2.15624C31.9937 1.78749 31.7562 1.46249 31.4062 1.34999L27.525 0.0999939C27.4187 0.0687439 27.3125 0.0437439 27.2062 0.0249939V4.49999C27.2125 4.13749 27.5687 3.87499 27.9125 3.98749Z" fill="url(#paint8_linear_38_399)"/>
<path d="M6.01874 8.18125L5.03749 5.75625C4.97499 5.6 5.05624 5.425 5.21874 5.375L5.79999 5.2C6.07499 5.11875 6.14999 4.7625 5.92499 4.575L3.36249 2.44375C2.83749 2.00625 2.08124 2.5625 2.33749 3.19375L3.31874 5.61875C3.38124 5.775 3.29999 5.95 3.13749 6L2.55624 6.175C2.28124 6.25625 2.20624 6.6125 2.43124 6.8L4.98749 8.93125C5.51874 9.36875 6.27499 8.8125 6.01874 8.18125Z" fill="url(#paint9_linear_38_399)"/>
</g>
<defs>
<linearGradient id="paint0_linear_38_399" x1="5.68065" y1="11.6305" x2="21.272" y2="27.2219" gradientUnits="userSpaceOnUse">
<stop stop-color="#DDE7F1"/>
<stop offset="1" stop-color="#B0BAC4"/>
</linearGradient>
<linearGradient id="paint1_linear_38_399" x1="15.6832" y1="12.329" x2="16.8753" y2="8.4389" gradientUnits="userSpaceOnUse">
<stop stop-color="#DDE7F1"/>
<stop offset="1" stop-color="#B0BAC4"/>
</linearGradient>
<linearGradient id="paint2_linear_38_399" x1="5.75015" y1="23.3003" x2="5.75015" y2="28.4753" gradientUnits="userSpaceOnUse">
<stop stop-color="#B0BAC4" stop-opacity="0"/>
<stop offset="1" stop-color="#757F89"/>
</linearGradient>
<linearGradient id="paint3_linear_38_399" x1="18.1796" y1="27.4197" x2="18.1796" y2="32.4584" gradientUnits="userSpaceOnUse">
<stop stop-color="#B0BAC4" stop-opacity="0"/>
<stop offset="1" stop-color="#757F89"/>
</linearGradient>
<linearGradient id="paint4_linear_38_399" x1="11.9958" y1="25.8603" x2="9.18184" y2="23.0463" gradientUnits="userSpaceOnUse">
<stop stop-color="#B0BAC4" stop-opacity="0"/>
<stop offset="1" stop-color="#757F89"/>
</linearGradient>
<linearGradient id="paint5_linear_38_399" x1="8.10239" y1="18.1228" x2="13.6087" y2="20.935" gradientUnits="userSpaceOnUse">
<stop stop-color="#C4CED8"/>
<stop offset="1" stop-color="#646E78"/>
</linearGradient>
<linearGradient id="paint6_linear_38_399" x1="18.9914" y1="20.2878" x2="18.9914" y2="15.6718" gradientUnits="userSpaceOnUse">
<stop stop-color="#B0BAC4" stop-opacity="0"/>
<stop offset="1" stop-color="#757F89"/>
</linearGradient>
<linearGradient id="paint7_linear_38_399" x1="23.5235" y1="6.49642" x2="27.77" y2="10.7429" gradientUnits="userSpaceOnUse">
<stop stop-color="#79838D"/>
<stop offset="1" stop-color="#49535D"/>
</linearGradient>
<linearGradient id="paint8_linear_38_399" x1="29.6067" y1="2.30131" x2="29.6067" y2="5.61004" gradientUnits="userSpaceOnUse">
<stop stop-color="#49535D" stop-opacity="0"/>
<stop offset="1" stop-color="#28323C"/>
</linearGradient>
<linearGradient id="paint9_linear_38_399" x1="5.80143" y1="4.67431" x2="1.94158" y2="7.0884" gradientUnits="userSpaceOnUse">
<stop stop-color="#C4CED8"/>
<stop offset="1" stop-color="#646E78"/>
</linearGradient>
<clipPath id="clip0_38_399">
<rect width="32" height="32" fill="white"/>
</clipPath>
</defs>
</svg>
