<svg width="24" height="24" viewBox="0 0 24 24" fill="none" xmlns="http://www.w3.org/2000/svg">
<path d="M12 21.7919C12.4507 21.7919 12.8161 21.4265 12.8161 20.9758C12.8161 20.5251 12.4507 20.1597 12 20.1597C11.5493 20.1597 11.1839 20.5251 11.1839 20.9758C11.1839 21.4265 11.5493 21.7919 12 21.7919Z" fill="#B4DAFC"/>
<path d="M16.7077 0H7.29226C5.92447 0 4.81183 1.11275 4.81183 2.48043V21.5196C4.81183 22.8873 5.92458 24 7.29226 24H16.7078C18.0755 24 19.1883 22.8873 19.1883 21.5196V2.48043C19.1881 1.11275 18.0755 0 16.7077 0ZM6.41183 4.85365H17.5882V18.1759H6.41183V4.85365ZM7.29226 1.6H16.7078C17.1933 1.6 17.5883 1.99499 17.5883 2.48043V3.25365H6.41183V2.48043C6.41183 1.99499 6.80671 1.6 7.29226 1.6ZM16.7077 22.4H7.29226C6.80682 22.4 6.41183 22.005 6.41183 21.5196V19.7758H17.5882V21.5196C17.5882 22.005 17.1933 22.4 16.7077 22.4Z" fill="#B4DAFC"/>
</svg>
